<?xml version="1.0" encoding="UTF-8" standalone="no"?>
<!-- Generator: Adobe Illustrator 21.1.0, SVG Export Plug-In . SVG Version: 6.00 Build 0)  -->

<svg
   xmlns:dc="http://purl.org/dc/elements/1.1/"
   xmlns:cc="http://creativecommons.org/ns#"
   xmlns:rdf="http://www.w3.org/1999/02/22-rdf-syntax-ns#"
   xmlns:svg="http://www.w3.org/2000/svg"
   xmlns="http://www.w3.org/2000/svg"
   xmlns:xlink="http://www.w3.org/1999/xlink"
   xmlns:sodipodi="http://sodipodi.sourceforge.net/DTD/sodipodi-0.dtd"
   xmlns:inkscape="http://www.inkscape.org/namespaces/inkscape"
   version="1.1"
   id="Layer_1"
   inkscape:export-filename="_runtime-logo.png"
   inkscape:export-xdpi="96"
   inkscape:export-ydpi="96"
   inkscape:version="0.92.4 (5da689c313, 2019-01-14)"
   sodipodi:docname="_runtime-logo.svg"
   x="0px"
   y="0px"
   viewBox="0 0 2048 2048"
   style="enable-background:new 0 0 2048 2048;"
   xml:space="preserve"><metadata
   id="metadata185"><rdf:RDF><cc:Work
       rdf:about=""><dc:format>image/svg+xml</dc:format><dc:type
         rdf:resource="http://purl.org/dc/dcmitype/StillImage" /></cc:Work></rdf:RDF></metadata><defs
   id="defs183">
	
	
	
	
	
	
	
	
	
	
	
	
	
	
	
	
	
	
	
	
	
	
	
	
	
	
	
	
	
	
	
</defs>
<style
   type="text/css"
   id="style2">
	.st0{fill:#FFFFFF;}
	.st1{fill:#E02127;}
	.st2{fill:#3B789A;}
	.st3{fill:#529CB3;}
	.st4{fill:#4D8DA7;}
	.st5{fill:#49828B;}
	.st6{fill:#436E86;}
	.st7{fill:#3D7494;}
	.st8{fill:#41838D;}
	.st9{fill:#427D82;}
	.st10{fill:#447775;}
	.st11{fill:#5299A2;}
	.st12{fill:#4C8E88;}
	.st13{fill:#56A6A6;}
	.st14{fill:#57AE9B;}
	.st15{fill:#50A283;}
	.st16{fill:#468D67;}
	.st17{fill:#42875F;}
	.st18{fill:#468E69;}
	.st19{fill:#3F9E69;}
	.st20{fill:#35AA57;}
	.st21{fill:#3CA362;}
	.st22{fill:#2CB24B;}
	.st23{fill:#438760;}
	.st24{fill:#43796E;}
	.st25{fill:#42747F;}
	.st26{fill:#48809F;}
	.st27{fill:#4E95BB;}
	.st28{fill:#438772;}
	.st29{fill:#2E2E2E;}
	.st30{fill:#5B5B5B;}
	.st31{fill:#7F7F7F;}
	.st32{fill:#696969;}
	.st33{fill:#888888;}
	.st34{fill:#7D7D7D;}
	.st35{fill:#727272;}
	.st36{fill:#646464;}
	.st37{fill:#676767;}
	.st38{fill:#757575;}
	.st39{fill:#6C6C6C;}
	.st40{fill:#858585;}
	.st41{fill:#7A7A7A;}
	.st42{fill:#8E8E8E;}
	.st43{fill:#929292;}
	.st44{fill:#868686;}
	.st45{fill:#747474;}
	.st46{fill:#6E6E6E;}
	.st47{fill:#7C7C7C;}
	.st48{fill:#7E7E7E;}
	.st49{fill:#686868;}
	.st50{fill:#666666;}
	.st51{fill:#737373;}
	.st52{fill:#848484;}
	.st53{fill:#707070;}
</style>
<sodipodi:namedview
   bordercolor="#666666"
   borderopacity="1"
   gridtolerance="10"
   guidetolerance="10"
   id="namedview171"
   inkscape:bbox-nodes="true"
   inkscape:bbox-paths="true"
   inkscape:current-layer="g1334"
   inkscape:cx="651.78243"
   inkscape:cy="1056.6893"
   inkscape:guide-bbox="true"
   inkscape:object-nodes="true"
   inkscape:object-paths="true"
   inkscape:pagecheckerboard="true"
   inkscape:pageopacity="0"
   inkscape:pageshadow="2"
   inkscape:showpageshadow="false"
   inkscape:snap-bbox="true"
   inkscape:snap-bbox-edge-midpoints="true"
   inkscape:snap-bbox-midpoints="true"
   inkscape:snap-center="true"
   inkscape:snap-global="true"
   inkscape:snap-intersection-paths="true"
   inkscape:snap-midpoints="true"
   inkscape:snap-object-midpoints="true"
   inkscape:snap-page="true"
   inkscape:snap-smooth-nodes="true"
   inkscape:window-height="1147"
   inkscape:window-maximized="1"
   inkscape:window-width="1920"
   inkscape:window-x="-8"
   inkscape:window-y="-8"
   inkscape:zoom="0.44470388"
   objecttolerance="10"
   pagecolor="#ffffff"
   showgrid="false"
   showguides="true">
	
		<sodipodi:guide
   id="guide941"
   inkscape:color="rgb(0,0,255)"
   inkscape:label=""
   inkscape:locked="false"
   orientation="1,0"
   position="1024,0">
		</sodipodi:guide>
	<sodipodi:guide
   id="guide943"
   inkscape:locked="false"
   orientation="0,1"
   position="0,0" />
	<sodipodi:guide
   id="guide949"
   inkscape:locked="false"
   orientation="1,0"
   position="0,1024" />
	<sodipodi:guide
   id="guide951"
   inkscape:locked="false"
   orientation="0,1"
   position="0,1024" />
	<sodipodi:guide
   id="guide953"
   inkscape:locked="false"
   orientation="1,0"
   position="2048,1024" />
	
		<sodipodi:guide
   id="guide1160"
   inkscape:color="rgb(0,0,255)"
   inkscape:label=""
   inkscape:locked="false"
   orientation="0,1"
   position="0,512">
		</sodipodi:guide>
	
		<sodipodi:guide
   id="guide1164"
   inkscape:color="rgb(0,0,255)"
   inkscape:label=""
   inkscape:locked="false"
   orientation="1,0"
   position="512,1024">
		</sodipodi:guide>
	
		<sodipodi:guide
   id="guide1166"
   inkscape:color="rgb(0,0,255)"
   inkscape:label=""
   inkscape:locked="false"
   orientation="1,0"
   position="1536,1024">
		</sodipodi:guide>
	<sodipodi:guide
   id="guide1352"
   inkscape:locked="false"
   orientation="0,1"
   position="2048,2048" />
	
		<sodipodi:guide
   id="guide1354"
   inkscape:color="rgb(0,0,255)"
   inkscape:label=""
   inkscape:locked="false"
   orientation="0,1"
   position="0,1536">
		</sodipodi:guide>
</sodipodi:namedview>
<rect
   id="rect1336"
   x="1116.2"
   y="92.2"
   class="st0"
   width="839.6"
   height="839.6" />
<g
   id="g1074"
   transform="translate(-1.2207031e-4)">
	<path
   id="path6"
   inkscape:connector-curvature="0"
   class="st1"
   d="m 279.1,733.5 v 7.6 H 203 v -7.6 z"
   style="opacity:1;vector-effect:none;fill:#e0684b;fill-opacity:1;stroke-width:1;stroke-linecap:butt;stroke-linejoin:miter;stroke-miterlimit:4;stroke-dasharray:none;stroke-dashoffset:0;stroke-opacity:1" />
	<path
   id="path8"
   inkscape:connector-curvature="0"
   class="st1"
   d="m 290.2,671.4 c 0,-8.7 -0.2,-16.1 -0.6,-23 h 11.7 l 0.6,14.6 h 0.5 c 3.3,-9.9 11.6,-16.1 20.5,-16.1 1.4,0 2.4,0.2 3.7,0.3 v 12.6 c -1.4,-0.3 -2.7,-0.3 -4.6,-0.3 -9.4,0 -16.1,7 -18,17 -0.3,1.8 -0.5,4.1 -0.5,6.2 v 39.4 h -13.4 z"
   style="fill:#e0684b;fill-opacity:1" />
	<path
   id="path10"
   inkscape:connector-curvature="0"
   class="st2"
   d="m 401.6,701.8 c 0,7.8 0.2,14.5 0.6,20.2 h -11.9 l -0.8,-12 h -0.3 c -3.3,5.9 -11.3,13.7 -24.3,13.7 -11.6,0 -25.4,-6.5 -25.4,-32.3 v -43.1 h 13.4 v 40.6 c 0,14 4.4,23.6 16.4,23.6 9,0 15.2,-6.2 17.7,-12.3 0.8,-1.8 1.2,-4.3 1.2,-6.8 v -45 h 13.4 z"
   style="fill:#3b789a" />
	<path
   id="path12"
   inkscape:connector-curvature="0"
   class="st2"
   d="m 423.8,668.3 c 0,-7.8 -0.2,-13.8 -0.6,-19.9 h 11.9 l 0.8,12.2 h 0.3 c 3.7,-6.8 12.2,-13.7 24.3,-13.7 10.2,0 26,6.1 26,31.3 v 43.9 h -13.4 v -42.5 c 0,-11.9 -4.4,-21.8 -17,-21.8 -8.7,0 -15.5,6.2 -18,13.7 -0.6,1.7 -0.9,4 -0.9,6.2 v 44.4 h -13.4 z"
   style="fill:#3b789a" />
	<path
   id="path14"
   inkscape:connector-curvature="0"
   class="st2"
   d="m 523.8,630.8 v 17.7 H 543 v 10.2 h -19.2 v 39.7 c 0,9.1 2.6,14.3 10,14.3 3.7,0 5.8,-0.3 7.8,-0.9 l 0.6,10.2 c -2.6,0.9 -6.7,1.8 -11.9,1.8 -6.2,0 -11.3,-2.1 -14.5,-5.6 -3.7,-4.1 -5.2,-10.7 -5.2,-19.3 v -40.2 h -11.4 v -10.2 h 11.4 v -13.7 z"
   style="fill:#3b789a" />
	<path
   id="path16"
   inkscape:connector-curvature="0"
   class="st2"
   d="m 573,627.7 c 0,4.6 -3.2,8.2 -8.5,8.2 -4.9,0 -8.1,-3.7 -8.1,-8.2 0,-4.6 3.3,-8.4 8.4,-8.4 4.8,0 8.2,3.7 8.2,8.4 z m -15,94.4 v -73.6 h 13.4 v 73.6 z"
   style="fill:#3b789a" />
	<path
   id="path18"
   inkscape:connector-curvature="0"
   class="st2"
   d="m 593.6,668.3 c 0,-7.8 -0.3,-13.8 -0.6,-19.9 h 11.7 l 0.6,12 h 0.5 c 4.1,-7 11,-13.5 23.3,-13.5 9.9,0 17.5,6.1 20.7,14.8 h 0.3 c 2.3,-4.3 5.3,-7.3 8.4,-9.6 4.4,-3.3 9.1,-5.2 16.1,-5.2 9.9,0 24.3,6.4 24.3,32 v 43.2 h -13 v -41.5 c 0,-14.3 -5.3,-22.7 -16,-22.7 -7.8,0 -13.5,5.6 -16,12 -0.6,2 -1.1,4.3 -1.1,6.7 v 45.5 H 639.7 V 678 c 0,-11.7 -5.2,-20.1 -15.4,-20.1 -8.2,0 -14.5,6.7 -16.6,13.4 -0.8,1.8 -1.1,4.3 -1.1,6.5 v 44.3 h -13.1 z"
   style="fill:#3b789a" />
	<path
   id="path20"
   inkscape:connector-curvature="0"
   class="st2"
   d="m 728,687.7 c 0.3,18.1 11.7,25.6 25.3,25.6 9.6,0 15.5,-1.7 20.4,-3.8 l 2.4,9.6 c -4.7,2.1 -12.9,4.7 -24.7,4.7 -22.7,0 -36.2,-15.1 -36.2,-37.3 0,-22.2 13.1,-39.6 34.5,-39.6 24.2,0 30.4,21 30.4,34.5 0,2.7 -0.2,4.7 -0.5,6.2 z m 39.3,-9.6 c 0.2,-8.4 -3.5,-21.6 -18.6,-21.6 -13.7,0 -19.5,12.3 -20.5,21.6 z"
   style="fill:#3b789a" />
</g>
<circle
   id="path955"
   class="st0"
   cx="512"
   cy="1536"
   r="440.3"
   style="fill:#201936;fill-opacity:1" />
<g
   id="g1045"
   transform="translate(14.880184,-21.9097)">
	<path
   id="path957"
   inkscape:connector-curvature="0"
   class="st1"
   d="m 264.2,1800.7 v 7.6 h -76.1 v -7.6 z"
   style="opacity:1;vector-effect:none;fill:#e0684b;fill-opacity:1;stroke-width:1;stroke-linecap:butt;stroke-linejoin:miter;stroke-miterlimit:4;stroke-dasharray:none;stroke-dashoffset:0;stroke-opacity:1" />
	<path
   id="path959"
   inkscape:connector-curvature="0"
   class="st1"
   d="m 275.3,1738.6 c 0,-8.7 -0.2,-16.1 -0.6,-23 h 11.7 l 0.6,14.6 h 0.5 c 3.3,-9.9 11.6,-16.1 20.5,-16.1 1.4,0 2.4,0.2 3.7,0.3 v 12.6 c -1.4,-0.3 -2.7,-0.3 -4.6,-0.3 -9.4,0 -16.1,7 -18,17 -0.3,1.8 -0.5,4.1 -0.5,6.2 v 39.4 h -13.4 z"
   style="opacity:1;vector-effect:none;fill:#e0684b;fill-opacity:1;stroke-width:1;stroke-linecap:butt;stroke-linejoin:miter;stroke-miterlimit:4;stroke-dasharray:none;stroke-dashoffset:0;stroke-opacity:1" />
	<path
   id="path961"
   inkscape:connector-curvature="0"
   class="st2"
   d="m 386.7,1769 c 0,7.8 0.2,14.5 0.6,20.2 h -11.9 l -0.8,-12 h -0.3 c -3.3,5.9 -11.3,13.7 -24.3,13.7 -11.6,0 -25.4,-6.5 -25.4,-32.3 v -43.1 H 338 v 40.6 c 0,14 4.4,23.6 16.4,23.6 9,0 15.2,-6.2 17.7,-12.3 0.8,-1.8 1.2,-4.3 1.2,-6.8 v -45 h 13.4 z"
   style="fill:#ffffff;fill-opacity:1" />
	<path
   id="path963"
   inkscape:connector-curvature="0"
   class="st2"
   d="m 408.9,1735.5 c 0,-7.8 -0.2,-13.8 -0.6,-19.9 h 11.9 l 0.8,12.2 h 0.3 c 3.7,-6.8 12.2,-13.7 24.3,-13.7 10.2,0 26,6.1 26,31.3 v 43.9 h -13.4 v -42.5 c 0,-11.9 -4.4,-21.8 -17,-21.8 -8.7,0 -15.5,6.2 -18,13.7 -0.6,1.7 -0.9,4 -0.9,6.2 v 44.4 h -13.4 z"
   style="opacity:1;vector-effect:none;fill:#ffffff;fill-opacity:1;stroke-width:1;stroke-linecap:butt;stroke-linejoin:miter;stroke-miterlimit:4;stroke-dasharray:none;stroke-dashoffset:0;stroke-opacity:1" />
	<path
   id="path965"
   inkscape:connector-curvature="0"
   class="st2"
   d="m 508.9,1698 v 17.7 h 19.2 v 10.2 h -19.2 v 39.7 c 0,9.1 2.6,14.3 10,14.3 3.7,0 5.8,-0.3 7.8,-0.9 l 0.6,10.2 c -2.6,0.9 -6.7,1.8 -11.9,1.8 -6.2,0 -11.3,-2.1 -14.5,-5.6 -3.7,-4.1 -5.2,-10.7 -5.2,-19.3 v -40.2 h -11.4 v -10.2 h 11.4 V 1702 Z"
   style="opacity:1;vector-effect:none;fill:#ffffff;fill-opacity:1;stroke-width:1;stroke-linecap:butt;stroke-linejoin:miter;stroke-miterlimit:4;stroke-dasharray:none;stroke-dashoffset:0;stroke-opacity:1" />
	<path
   id="path967"
   inkscape:connector-curvature="0"
   class="st2"
   d="m 558.1,1694.9 c 0,4.6 -3.2,8.2 -8.5,8.2 -4.9,0 -8.1,-3.7 -8.1,-8.2 0,-4.6 3.3,-8.4 8.4,-8.4 4.8,0 8.2,3.7 8.2,8.4 z m -15,94.4 v -73.6 h 13.4 v 73.6 z"
   style="opacity:1;vector-effect:none;fill:#ffffff;fill-opacity:1;stroke-width:1;stroke-linecap:butt;stroke-linejoin:miter;stroke-miterlimit:4;stroke-dasharray:none;stroke-dashoffset:0;stroke-opacity:1" />
	<path
   id="path969"
   inkscape:connector-curvature="0"
   class="st2"
   d="m 578.7,1735.5 c 0,-7.8 -0.3,-13.8 -0.6,-19.9 h 11.7 l 0.6,12 h 0.5 c 4.1,-7 11,-13.5 23.3,-13.5 9.9,0 17.5,6.1 20.7,14.8 h 0.3 c 2.3,-4.3 5.3,-7.3 8.4,-9.6 4.4,-3.3 9.1,-5.2 16.1,-5.2 9.9,0 24.3,6.4 24.3,32 v 43.2 h -13 v -41.5 c 0,-14.3 -5.3,-22.7 -16,-22.7 -7.8,0 -13.5,5.6 -16,12 -0.6,2 -1.1,4.3 -1.1,6.7 v 45.5 h -13.1 v -44.1 c 0,-11.7 -5.2,-20.1 -15.4,-20.1 -8.2,0 -14.5,6.7 -16.6,13.4 -0.8,1.8 -1.1,4.3 -1.1,6.5 v 44.3 h -13.1 z"
   style="opacity:1;vector-effect:none;fill:#ffffff;fill-opacity:1;stroke-width:1;stroke-linecap:butt;stroke-linejoin:miter;stroke-miterlimit:4;stroke-dasharray:none;stroke-dashoffset:0;stroke-opacity:1" />
	<path
   id="path971"
   inkscape:connector-curvature="0"
   class="st2"
   d="m 713.1,1754.9 c 0.3,18.1 11.7,25.6 25.3,25.6 9.6,0 15.5,-1.7 20.4,-3.8 l 2.4,9.6 c -4.7,2.1 -12.9,4.7 -24.7,4.7 -22.7,0 -36.2,-15.1 -36.2,-37.3 0,-22.2 13.1,-39.6 34.5,-39.6 24.2,0 30.4,21 30.4,34.5 0,2.7 -0.2,4.7 -0.5,6.2 z m 39.3,-9.6 c 0.2,-8.4 -3.5,-21.6 -18.6,-21.6 -13.7,0 -19.5,12.3 -20.5,21.6 z"
   style="opacity:1;vector-effect:none;fill:#ffffff;fill-opacity:1;stroke-width:1;stroke-linecap:butt;stroke-linejoin:miter;stroke-miterlimit:4;stroke-dasharray:none;stroke-dashoffset:0;stroke-opacity:1" />
</g>

<g
   id="g1035"
   transform="rotate(-9.9845205,6473.721,940.1005)">
	<polygon
   id="polygon973"
   class="st2"
   points="851.6,553.4 821.1,560.3 778.9,518.3 626.9,539.3 636.1,482.2 539.2,549.5 368.1,464 256.6,548.8 210,513.6 116.1,575.3 120.8,533.7 206.1,437.5 236.1,465.7 393.7,330.9 616,369.3 695.9,324.5 647.1,297.6 551,295.2 530,245.8 569.7,260.7 683.5,257.3 718.2,312 731.9,304.5 828.2,371.2 843.3,410.5 781.8,432.9 709.2,406.2 697.9,465.3 810.2,478.5 "
   style="fill:#3b789a" />
	<polygon
   id="polygon975"
   class="st3"
   points="116.1,575.3 210,513.6 120.8,533.7 "
   style="opacity:1;vector-effect:none;fill:#1c617e;fill-opacity:1;stroke-width:1;stroke-linecap:butt;stroke-linejoin:miter;stroke-miterlimit:4;stroke-dasharray:none;stroke-dashoffset:0;stroke-opacity:1" />
	<polygon
   id="polygon977"
   class="st4"
   points="210,513.6 206.1,437.5 120.8,533.7 "
   style="opacity:1;vector-effect:none;fill:#0e4a63;fill-opacity:1;stroke-width:1;stroke-linecap:butt;stroke-linejoin:miter;stroke-miterlimit:4;stroke-dasharray:none;stroke-dashoffset:0;stroke-opacity:1" />
	<polygon
   id="polygon979"
   class="st5"
   points="206.1,437.5 236.1,465.7 210,513.6 "
   style="opacity:1;vector-effect:none;fill:#4f89a1;fill-opacity:1;stroke-width:1;stroke-linecap:butt;stroke-linejoin:miter;stroke-miterlimit:4;stroke-dasharray:none;stroke-dashoffset:0;stroke-opacity:1" />
	<polygon
   id="polygon981"
   class="st6"
   points="236.1,465.7 256.6,548.8 210,513.6 "
   style="opacity:1;vector-effect:none;fill:#1c617e;fill-opacity:1;stroke-width:1;stroke-linecap:butt;stroke-linejoin:miter;stroke-miterlimit:4;stroke-dasharray:none;stroke-dashoffset:0;stroke-opacity:1" />
	<polygon
   id="polygon983"
   class="st7"
   points="236.1,465.7 393.7,330.9 256.6,548.8 "
   style="fill:#3d7494" />
	<polygon
   id="polygon985"
   class="st8"
   points="393.7,330.9 368.1,464 256.6,548.8 "
   style="fill:#81b1c6;fill-opacity:1" />
	<polygon
   id="polygon987"
   class="st9"
   points="368.1,464 539.2,549.5 393.7,330.9 "
   style="fill:#1c617e;fill-opacity:1" />
	<polygon
   id="polygon989"
   class="st10"
   points="539.2,549.5 393.7,330.9 616,369.3 "
   style="fill:#4f89a1;fill-opacity:1" />
	<polygon
   id="polygon991"
   class="st11"
   points="636.1,482.2 539.2,549.5 616,369.3 "
   style="opacity:1;vector-effect:none;fill:#81b1c6;fill-opacity:1;stroke-width:1;stroke-linecap:butt;stroke-linejoin:miter;stroke-miterlimit:4;stroke-dasharray:none;stroke-dashoffset:0;stroke-opacity:1" />
	<polygon
   id="polygon993"
   class="st12"
   points="636.1,482.2 709.2,406.2 616,369.3 "
   style="fill:#4f89a1;fill-opacity:1" />
	<polygon
   id="polygon995"
   class="st11"
   points="636.1,482.2 697.9,465.3 709.2,406.2 "
   style="fill:#1c617e;fill-opacity:1" />
	<polygon
   id="polygon997"
   class="st13"
   points="636.1,482.2 626.9,539.3 697.9,465.3 "
   style="opacity:1;vector-effect:none;fill:#0e4a63;fill-opacity:1;stroke-width:1;stroke-linecap:butt;stroke-linejoin:miter;stroke-miterlimit:4;stroke-dasharray:none;stroke-dashoffset:0;stroke-opacity:1" />
	<polygon
   id="polygon999"
   class="st14"
   points="626.9,539.3 778.9,518.3 697.9,465.3 "
   style="opacity:1;vector-effect:none;fill:#1c617e;fill-opacity:1;stroke-width:1;stroke-linecap:butt;stroke-linejoin:miter;stroke-miterlimit:4;stroke-dasharray:none;stroke-dashoffset:0;stroke-opacity:1" />
	<polygon
   id="polygon1001"
   class="st15"
   points="810.2,478.5 778.9,518.3 697.9,465.3 "
   style="opacity:1;vector-effect:none;fill:#4f89a1;fill-opacity:1;stroke-width:1;stroke-linecap:butt;stroke-linejoin:miter;stroke-miterlimit:4;stroke-dasharray:none;stroke-dashoffset:0;stroke-opacity:1" />
	<path
   id="path1003"
   inkscape:connector-curvature="0"
   class="st16"
   d="m 778.9,518.3 c 1.6,-2 31.3,-39.8 31.3,-39.8 l 11,81.8 z"
   style="opacity:1;vector-effect:none;fill:#0e4a63;fill-opacity:1;stroke-width:1;stroke-linecap:butt;stroke-linejoin:miter;stroke-miterlimit:4;stroke-dasharray:none;stroke-dashoffset:0;stroke-opacity:1" />
	<polygon
   id="polygon1005"
   class="st17"
   points="821.1,560.3 851.6,553.4 810.2,478.5 "
   style="opacity:1;vector-effect:none;fill:#81b1c6;fill-opacity:1;stroke-width:1;stroke-linecap:butt;stroke-linejoin:miter;stroke-miterlimit:4;stroke-dasharray:none;stroke-dashoffset:0;stroke-opacity:1" />
	<polygon
   id="polygon1007"
   class="st18"
   points="718.2,312 709.2,406.2 695.9,324.5 "
   style="opacity:1;vector-effect:none;fill:#1c617e;fill-opacity:1;stroke-width:1;stroke-linecap:butt;stroke-linejoin:miter;stroke-miterlimit:4;stroke-dasharray:none;stroke-dashoffset:0;stroke-opacity:1" />
	<polygon
   id="polygon1009"
   class="st19"
   points="731.9,304.5 709.2,406.2 718.2,312 "
   style="opacity:1;vector-effect:none;fill:#4f89a1;fill-opacity:1;stroke-width:1;stroke-linecap:butt;stroke-linejoin:miter;stroke-miterlimit:4;stroke-dasharray:none;stroke-dashoffset:0;stroke-opacity:1" />
	<polygon
   id="polygon1011"
   class="st20"
   points="781.8,432.9 709.2,406.2 731.9,304.5 "
   style="opacity:1;vector-effect:none;fill:#0e4a63;fill-opacity:1;stroke-width:1;stroke-linecap:butt;stroke-linejoin:miter;stroke-miterlimit:4;stroke-dasharray:none;stroke-dashoffset:0;stroke-opacity:1" />
	<polygon
   id="polygon1013"
   class="st21"
   points="781.8,432.9 828.2,371.2 731.9,304.5 "
   style="opacity:1;vector-effect:none;fill:#1c617e;fill-opacity:1;stroke-width:1;stroke-linecap:butt;stroke-linejoin:miter;stroke-miterlimit:4;stroke-dasharray:none;stroke-dashoffset:0;stroke-opacity:1" />
	<path
   id="path1015"
   inkscape:connector-curvature="0"
   class="st15"
   d="M 828.2,371.2"
   style="fill:#50a283" />
	<polygon
   id="polygon1017"
   class="st22"
   points="781.8,432.9 843.3,410.5 828.2,371.2 "
   style="opacity:1;vector-effect:none;fill:#81b1c6;fill-opacity:1;stroke-width:1;stroke-linecap:butt;stroke-linejoin:miter;stroke-miterlimit:4;stroke-dasharray:none;stroke-dashoffset:0;stroke-opacity:1" />
	<polygon
   id="polygon1019"
   class="st23"
   points="683.5,257.3 695.9,324.5 718.2,312 "
   style="opacity:1;vector-effect:none;fill:#81b1c6;fill-opacity:1;stroke-width:1;stroke-linecap:butt;stroke-linejoin:miter;stroke-miterlimit:4;stroke-dasharray:none;stroke-dashoffset:0;stroke-opacity:1" />
	<path
   id="path1021"
   inkscape:connector-curvature="0"
   class="st15"
   d="M 551,295.2"
   style="fill:#50a283" />
	<polygon
   id="polygon1023"
   class="st24"
   points="647.1,297.6 695.9,324.5 683.5,257.3 "
   style="opacity:1;vector-effect:none;fill:#1c617e;fill-opacity:1;stroke-width:1;stroke-linecap:butt;stroke-linejoin:miter;stroke-miterlimit:4;stroke-dasharray:none;stroke-dashoffset:0;stroke-opacity:1" />
	<polygon
   id="polygon1025"
   class="st25"
   points="569.7,260.7 647.1,297.6 683.5,257.3 "
   style="fill:#4f89a1;fill-opacity:1" />
	<polygon
   id="polygon1027"
   class="st26"
   points="551,295.2 647.1,297.6 569.7,260.7 "
   style="fill:#48809f" />
	<polygon
   id="polygon1029"
   class="st27"
   points="530,245.8 569.7,260.7 551,295.2 "
   style="fill:#4e95bb" />
	<polygon
   id="polygon1031"
   class="st1"
   points="327.9,370.3 279.8,310.9 381.5,326.6 "
   style="opacity:1;vector-effect:none;fill:#e0684b;fill-opacity:1;stroke-width:1;stroke-linecap:butt;stroke-linejoin:miter;stroke-miterlimit:4;stroke-dasharray:none;stroke-dashoffset:0;stroke-opacity:1" />
	<polygon
   id="polygon1033"
   class="st28"
   points="616,369.3 709.2,406.2 695.9,324.5 "
   style="opacity:1;vector-effect:none;fill:#0e4a63;fill-opacity:1;stroke-width:1;stroke-linecap:butt;stroke-linejoin:miter;stroke-miterlimit:4;stroke-dasharray:none;stroke-dashoffset:0;stroke-opacity:1" />
</g>



<g
   id="g1270"
   transform="translate(1020.8946)">
	<path
   id="path1254"
   inkscape:connector-curvature="0"
   class="st30"
   d="m 279.1,733.5 v 7.6 H 203 v -7.6 z"
   style="opacity:1;vector-effect:none;fill:#2b2b2b;fill-opacity:1;stroke-width:1;stroke-linecap:butt;stroke-linejoin:miter;stroke-miterlimit:4;stroke-dasharray:none;stroke-dashoffset:0;stroke-opacity:1" />
	<path
   id="path1256"
   inkscape:connector-curvature="0"
   class="st30"
   d="m 290.2,671.4 c 0,-8.7 -0.2,-16.1 -0.6,-23 h 11.7 l 0.6,14.6 h 0.5 c 3.3,-9.9 11.6,-16.1 20.5,-16.1 1.4,0 2.4,0.2 3.7,0.3 v 12.6 c -1.4,-0.3 -2.7,-0.3 -4.6,-0.3 -9.4,0 -16.1,7 -18,17 -0.3,1.8 -0.5,4.1 -0.5,6.2 v 39.4 h -13.4 z"
   style="fill:#2b2b2b;fill-opacity:1" />
	<path
   id="path1258"
   inkscape:connector-curvature="0"
   class="st31"
   d="m 401.6,701.8 c 0,7.8 0.2,14.5 0.6,20.2 h -11.9 l -0.8,-12 h -0.3 c -3.3,5.9 -11.3,13.7 -24.3,13.7 -11.6,0 -25.4,-6.5 -25.4,-32.3 v -43.1 h 13.4 v 40.6 c 0,14 4.4,23.6 16.4,23.6 9,0 15.2,-6.2 17.7,-12.3 0.8,-1.8 1.2,-4.3 1.2,-6.8 v -45 h 13.4 z"
   style="fill:#7f7f7f" />
	<path
   id="path1260"
   inkscape:connector-curvature="0"
   class="st31"
   d="m 423.8,668.3 c 0,-7.8 -0.2,-13.8 -0.6,-19.9 h 11.9 l 0.8,12.2 h 0.3 c 3.7,-6.8 12.2,-13.7 24.3,-13.7 10.2,0 26,6.1 26,31.3 v 43.9 h -13.4 v -42.5 c 0,-11.9 -4.4,-21.8 -17,-21.8 -8.7,0 -15.5,6.2 -18,13.7 -0.6,1.7 -0.9,4 -0.9,6.2 v 44.4 h -13.4 z"
   style="fill:#7f7f7f" />
	<path
   id="path1262"
   inkscape:connector-curvature="0"
   class="st31"
   d="m 523.8,630.8 v 17.7 H 543 v 10.2 h -19.2 v 39.7 c 0,9.1 2.6,14.3 10,14.3 3.7,0 5.8,-0.3 7.8,-0.9 l 0.6,10.2 c -2.6,0.9 -6.7,1.8 -11.9,1.8 -6.2,0 -11.3,-2.1 -14.5,-5.6 -3.7,-4.1 -5.2,-10.7 -5.2,-19.3 v -40.2 h -11.4 v -10.2 h 11.4 v -13.7 z"
   style="fill:#7f7f7f" />
	<path
   id="path1264"
   inkscape:connector-curvature="0"
   class="st31"
   d="m 573,627.7 c 0,4.6 -3.2,8.2 -8.5,8.2 -4.9,0 -8.1,-3.7 -8.1,-8.2 0,-4.6 3.3,-8.4 8.4,-8.4 4.8,0 8.2,3.7 8.2,8.4 z m -15,94.4 v -73.6 h 13.4 v 73.6 z"
   style="fill:#7f7f7f" />
	<path
   id="path1266"
   inkscape:connector-curvature="0"
   class="st31"
   d="m 593.6,668.3 c 0,-7.8 -0.3,-13.8 -0.6,-19.9 h 11.7 l 0.6,12 h 0.5 c 4.1,-7 11,-13.5 23.3,-13.5 9.9,0 17.5,6.1 20.7,14.8 h 0.3 c 2.3,-4.3 5.3,-7.3 8.4,-9.6 4.4,-3.3 9.1,-5.2 16.1,-5.2 9.9,0 24.3,6.4 24.3,32 v 43.2 h -13 v -41.5 c 0,-14.3 -5.3,-22.7 -16,-22.7 -7.8,0 -13.5,5.6 -16,12 -0.6,2 -1.1,4.3 -1.1,6.7 v 45.5 H 639.7 V 678 c 0,-11.7 -5.2,-20.1 -15.4,-20.1 -8.2,0 -14.5,6.7 -16.6,13.4 -0.8,1.8 -1.1,4.3 -1.1,6.5 v 44.3 h -13.1 z"
   style="fill:#7f7f7f" />
	<path
   id="path1268"
   inkscape:connector-curvature="0"
   class="st31"
   d="m 728,687.7 c 0.3,18.1 11.7,25.6 25.3,25.6 9.6,0 15.5,-1.7 20.4,-3.8 l 2.4,9.6 c -4.7,2.1 -12.9,4.7 -24.7,4.7 -22.7,0 -36.2,-15.1 -36.2,-37.3 0,-22.2 13.1,-39.6 34.5,-39.6 24.2,0 30.4,21 30.4,34.5 0,2.7 -0.2,4.7 -0.5,6.2 z m 39.3,-9.6 c 0.2,-8.4 -3.5,-21.6 -18.6,-21.6 -13.7,0 -19.5,12.3 -20.5,21.6 z"
   style="fill:#7f7f7f" />
</g>
<g
   id="g1334"
   transform="rotate(-9.9845205,1000.7053,-5426.1023)">
	<polygon
   id="polygon1272"
   class="st32"
   points="718.2,312 731.9,304.5 828.2,371.2 843.3,410.5 781.8,432.9 709.2,406.2 697.9,465.3 810.2,478.5 851.6,553.4 821.1,560.3 778.9,518.3 626.9,539.3 636.1,482.2 539.2,549.5 368.1,464 256.6,548.8 210,513.6 116.1,575.3 120.8,533.7 206.1,437.5 236.1,465.7 393.7,330.9 616,369.3 695.9,324.5 647.1,297.6 551,295.2 530,245.8 569.7,260.7 683.5,257.3 "
   style="fill:#696969" />
	<polygon
   id="polygon1274"
   class="st33"
   points="120.8,533.7 116.1,575.3 210,513.6 "
   style="fill:#6c6c6c;font-variant-east_asian:normal;opacity:1;vector-effect:none;fill-opacity:1;stroke-width:1;stroke-linecap:butt;stroke-linejoin:miter;stroke-miterlimit:4;stroke-dasharray:none;stroke-dashoffset:0;stroke-opacity:1" />
	<polygon
   id="polygon1276"
   class="st34"
   points="120.8,533.7 210,513.6 206.1,437.5 "
   style="fill:#676767;font-variant-east_asian:normal;opacity:1;vector-effect:none;fill-opacity:1;stroke-width:1;stroke-linecap:butt;stroke-linejoin:miter;stroke-miterlimit:4;stroke-dasharray:none;stroke-dashoffset:0;stroke-opacity:1" />
	<polygon
   id="polygon1278"
   class="st35"
   points="210,513.6 206.1,437.5 236.1,465.7 "
   style="fill:#858585;font-variant-east_asian:normal;opacity:1;vector-effect:none;fill-opacity:1;stroke-width:1;stroke-linecap:butt;stroke-linejoin:miter;stroke-miterlimit:4;stroke-dasharray:none;stroke-dashoffset:0;stroke-opacity:1" />
	<polygon
   id="polygon1280"
   class="st36"
   points="210,513.6 236.1,465.7 256.6,548.8 "
   style="fill:#646464" />
	<polygon
   id="polygon1282"
   class="st37"
   points="256.6,548.8 236.1,465.7 393.7,330.9 "
   style="fill:#676767" />
	<polygon
   id="polygon1284"
   class="st38"
   points="256.6,548.8 393.7,330.9 368.1,464 "
   style="fill:#757575" />
	<polygon
   id="polygon1286"
   class="st39"
   points="393.7,330.9 368.1,464 539.2,549.5 "
   style="fill:#676767;font-variant-east_asian:normal;opacity:1;vector-effect:none;fill-opacity:1;stroke-width:1;stroke-linecap:butt;stroke-linejoin:miter;stroke-miterlimit:4;stroke-dasharray:none;stroke-dashoffset:0;stroke-opacity:1" />
	<polygon
   id="polygon1288"
   class="st37"
   points="616,369.3 539.2,549.5 393.7,330.9 "
   style="fill:#6c6c6c;font-variant-east_asian:normal;opacity:1;vector-effect:none;fill-opacity:1;stroke-width:1;stroke-linecap:butt;stroke-linejoin:miter;stroke-miterlimit:4;stroke-dasharray:none;stroke-dashoffset:0;stroke-opacity:1" />
	<polygon
   id="polygon1290"
   class="st40"
   points="616,369.3 636.1,482.2 539.2,549.5 "
   style="fill:#858585" />
	<polygon
   id="polygon1292"
   class="st41"
   points="616,369.3 636.1,482.2 709.2,406.2 "
   style="fill:#7a7a7a" />
	<polygon
   id="polygon1294"
   class="st40"
   points="709.2,406.2 636.1,482.2 697.9,465.3 "
   style="fill:#858585" />
	<polygon
   id="polygon1296"
   class="st42"
   points="697.9,465.3 636.1,482.2 626.9,539.3 "
   style="fill:#676767;font-variant-east_asian:normal;opacity:1;vector-effect:none;fill-opacity:1;stroke-width:1;stroke-linecap:butt;stroke-linejoin:miter;stroke-miterlimit:4;stroke-dasharray:none;stroke-dashoffset:0;stroke-opacity:1" />
	<polygon
   id="polygon1298"
   class="st43"
   points="697.9,465.3 626.9,539.3 778.9,518.3 "
   style="fill:#6c6c6c;font-variant-east_asian:normal;opacity:1;vector-effect:none;fill-opacity:1;stroke-width:1;stroke-linecap:butt;stroke-linejoin:miter;stroke-miterlimit:4;stroke-dasharray:none;stroke-dashoffset:0;stroke-opacity:1" />
	<polygon
   id="polygon1300"
   class="st44"
   points="697.9,465.3 810.2,478.5 778.9,518.3 "
   style="fill:#858585;font-variant-east_asian:normal;opacity:1;vector-effect:none;fill-opacity:1;stroke-width:1;stroke-linecap:butt;stroke-linejoin:miter;stroke-miterlimit:4;stroke-dasharray:none;stroke-dashoffset:0;stroke-opacity:1" />
	<path
   id="path1302"
   inkscape:connector-curvature="0"
   class="st45"
   d="m 778.9,518.3 c 1.6,-2 31.3,-39.8 31.3,-39.8 l 11,81.8 z"
   style="fill:#6c6c6c;font-variant-east_asian:normal;opacity:1;vector-effect:none;fill-opacity:1;stroke-width:1;stroke-linecap:butt;stroke-linejoin:miter;stroke-miterlimit:4;stroke-dasharray:none;stroke-dashoffset:0;stroke-opacity:1" />
	<polygon
   id="polygon1304"
   class="st46"
   points="810.2,478.5 821.1,560.3 851.6,553.4 "
   style="fill:#858585;font-variant-east_asian:normal;opacity:1;vector-effect:none;fill-opacity:1;stroke-width:1;stroke-linecap:butt;stroke-linejoin:miter;stroke-miterlimit:4;stroke-dasharray:none;stroke-dashoffset:0;stroke-opacity:1" />
	<polygon
   id="polygon1306"
   class="st45"
   points="695.9,324.5 718.2,312 709.2,406.2 "
   style="fill:#747474" />
	<polygon
   id="polygon1308"
   class="st47"
   points="718.2,312 731.9,304.5 709.2,406.2 "
   style="fill:#7c7c7c" />
	<polygon
   id="polygon1310"
   class="st48"
   points="731.9,304.5 781.8,432.9 709.2,406.2 "
   style="fill:#676767;font-variant-east_asian:normal;opacity:1;vector-effect:none;fill-opacity:1;stroke-width:1;stroke-linecap:butt;stroke-linejoin:miter;stroke-miterlimit:4;stroke-dasharray:none;stroke-dashoffset:0;stroke-opacity:1" />
	<polygon
   id="polygon1312"
   class="st34"
   points="731.9,304.5 781.8,432.9 828.2,371.2 "
   style="fill:#7d7d7d" />
	<path
   id="path1314"
   inkscape:connector-curvature="0"
   class="st44"
   d="M 828.2,371.2"
   style="fill:#868686" />
	<polygon
   id="polygon1316"
   class="st48"
   points="828.2,371.2 781.8,432.9 843.3,410.5 "
   style="fill:#858585;font-variant-east_asian:normal;opacity:1;vector-effect:none;fill-opacity:1;stroke-width:1;stroke-linecap:butt;stroke-linejoin:miter;stroke-miterlimit:4;stroke-dasharray:none;stroke-dashoffset:0;stroke-opacity:1" />
	<polygon
   id="polygon1318"
   class="st46"
   points="718.2,312 683.5,257.3 695.9,324.5 "
   style="fill:#858585;font-variant-east_asian:normal;opacity:1;vector-effect:none;fill-opacity:1;stroke-width:1;stroke-linecap:butt;stroke-linejoin:miter;stroke-miterlimit:4;stroke-dasharray:none;stroke-dashoffset:0;stroke-opacity:1" />
	<path
   id="path1320"
   inkscape:connector-curvature="0"
   class="st44"
   d="M 551,295.2"
   style="fill:#868686" />
	<polygon
   id="polygon1322"
   class="st49"
   points="683.5,257.3 647.1,297.6 695.9,324.5 "
   style="fill:#676767;font-variant-east_asian:normal;opacity:1;vector-effect:none;fill-opacity:1;stroke-width:1;stroke-linecap:butt;stroke-linejoin:miter;stroke-miterlimit:4;stroke-dasharray:none;stroke-dashoffset:0;stroke-opacity:1" />
	<polygon
   id="polygon1324"
   class="st50"
   points="683.5,257.3 569.7,260.7 647.1,297.6 "
   style="fill:#6c6c6c;font-variant-east_asian:normal;opacity:1;vector-effect:none;fill-opacity:1;stroke-width:1;stroke-linecap:butt;stroke-linejoin:miter;stroke-miterlimit:4;stroke-dasharray:none;stroke-dashoffset:0;stroke-opacity:1" />
	<polygon
   id="polygon1326"
   class="st51"
   points="569.7,260.7 551,295.2 647.1,297.6 "
   style="fill:#737373" />
	<polygon
   id="polygon1328"
   class="st52"
   points="551,295.2 530,245.8 569.7,260.7 "
   style="fill:#848484" />
	<polygon
   id="polygon1330"
   class="st30"
   points="381.5,326.6 327.9,370.3 279.8,310.9 "
   style="fill:#2b2b2b;font-variant-east_asian:normal;opacity:1;vector-effect:none;fill-opacity:1;stroke-width:1;stroke-linecap:butt;stroke-linejoin:miter;stroke-miterlimit:4;stroke-dasharray:none;stroke-dashoffset:0;stroke-opacity:1" />
	<polygon
   id="polygon1332"
   class="st53"
   points="695.9,324.5 616,369.3 709.2,406.2 "
   style="fill:#676767;font-variant-east_asian:normal;opacity:1;vector-effect:none;fill-opacity:1;stroke-width:1;stroke-linecap:butt;stroke-linejoin:miter;stroke-miterlimit:4;stroke-dasharray:none;stroke-dashoffset:0;stroke-opacity:1" />
</g>
<use
   x="0"
   y="0"
   xlink:href="#g1035"
   id="use1714"
   transform="translate(0.0917785,-1045.3799)"
   width="100%"
   height="100%"
   style="display:inline" /></svg>