<?xml version="1.0" encoding="UTF-8" standalone="no"?>
<!-- Generator: Adobe Illustrator 21.1.0, SVG Export Plug-In . SVG Version: 6.00 Build 0)  -->

<svg
   xmlns:dc="http://purl.org/dc/elements/1.1/"
   xmlns:cc="http://creativecommons.org/ns#"
   xmlns:rdf="http://www.w3.org/1999/02/22-rdf-syntax-ns#"
   xmlns:svg="http://www.w3.org/2000/svg"
   xmlns="http://www.w3.org/2000/svg"
   xmlns:sodipodi="http://sodipodi.sourceforge.net/DTD/sodipodi-0.dtd"
   xmlns:inkscape="http://www.inkscape.org/namespaces/inkscape"
   version="1.1"
   id="Layer_1"
   x="0px"
   y="0px"
   viewBox="0 0 2048 1024"
   style="enable-background:new 0 0 2048 1024;"
   xml:space="preserve"
   sodipodi:docname="_runtime-logo.svg"
   inkscape:version="0.92.4 (5da689c313, 2019-01-14)"><metadata
   id="metadata175"><rdf:RDF><cc:Work
       rdf:about=""><dc:format>image/svg+xml</dc:format><dc:type
         rdf:resource="http://purl.org/dc/dcmitype/StillImage" /><dc:title></dc:title></cc:Work></rdf:RDF></metadata><defs
   id="defs173">
	
	

		
		
		
		
		
	
			
			
			
			
			
			
			
			
			
			
			
			
			
			
			
			
			
			
			
			
			
			
			
			
			
			
			
			
			
			
		
			
			
			
			
			
			
			
			
		
			
			
			
			
			
			
			
			
			
			
			
			
			
			
			
			
			
			
			
			
			
			
			
			
			
			
			
			
			
			
		
			
			
			
			
			
			
			
			
		</defs><sodipodi:namedview
   pagecolor="#ffffff"
   bordercolor="#666666"
   borderopacity="1"
   objecttolerance="10"
   gridtolerance="10"
   guidetolerance="10"
   inkscape:pageopacity="0"
   inkscape:pageshadow="2"
   inkscape:window-width="1920"
   inkscape:window-height="1147"
   id="namedview171"
   showgrid="false"
   inkscape:zoom="0.62890625"
   inkscape:cx="964.31338"
   inkscape:cy="368.87928"
   inkscape:window-x="-8"
   inkscape:window-y="-8"
   inkscape:window-maximized="1"
   inkscape:current-layer="Layer_1" />
<style
   type="text/css"
   id="style2">
	.st0{fill:#3F3C3B;}
	.st1{fill:#E02127;stroke:#282828;stroke-width:0.25;stroke-miterlimit:10;}
	.st2{fill:#3B789A;stroke:#282828;stroke-width:0.25;stroke-miterlimit:10;}
	.st3{fill:#529CB3;}
	.st4{fill:#4D8DA7;}
	.st5{fill:#49828B;}
	.st6{fill:#436E86;}
	.st7{fill:#3D7494;}
	.st8{fill:#41838D;}
	.st9{fill:#427D82;}
	.st10{fill:#447775;}
	.st11{fill:#5299A2;}
	.st12{fill:#4C8E88;}
	.st13{fill:#56A6A6;}
	.st14{fill:#57AE9B;}
	.st15{fill:#50A283;}
	.st16{fill:#468D67;}
	.st17{fill:#42875F;}
	.st18{fill:#468E69;}
	.st19{fill:#3F9E69;}
	.st20{fill:#35AA57;}
	.st21{fill:#3CA362;}
	.st22{fill:#2CB24B;}
	.st23{fill:#438760;}
	.st24{fill:#43796E;}
	.st25{fill:#42747F;}
	.st26{fill:#48809F;}
	.st27{fill:#4E95BB;}
	.st28{fill:#E02127;}
	.st29{fill:#438772;}
</style>
<circle
   class="st0"
   cx="1527.5"
   cy="506.5"
   r="479"
   id="circle4"
   style="fill:#3f3c3b" /><path
   style="fill:#e02127;stroke:#282828;stroke-width:0.25;stroke-miterlimit:10"
   inkscape:connector-curvature="0"
   id="path6"
   d="m 264.2,735.4 v 7.6 h -76.1 v -7.6 z"
   class="st1" /><path
   style="fill:#e02127;stroke:#282828;stroke-width:0.25;stroke-miterlimit:10"
   inkscape:connector-curvature="0"
   id="path8"
   d="m 275.3,673.3 c 0,-8.7 -0.2,-16.1 -0.6,-23 h 11.7 l 0.6,14.6 h 0.5 c 3.3,-9.9 11.6,-16.1 20.5,-16.1 1.4,0 2.4,0.2 3.7,0.3 v 12.6 c -1.4,-0.3 -2.7,-0.3 -4.6,-0.3 -9.4,0 -16.1,7 -18,17 -0.3,1.8 -0.5,4.1 -0.5,6.2 V 724 h -13.4 v -50.7 z"
   class="st1" /><path
   style="fill:#3b789a;stroke:#282828;stroke-width:0.25;stroke-miterlimit:10"
   inkscape:connector-curvature="0"
   id="path10"
   d="m 386.7,703.7 c 0,7.8 0.2,14.5 0.6,20.2 h -11.9 l -0.8,-12 h -0.3 c -3.3,5.9 -11.3,13.7 -24.3,13.7 -11.6,0 -25.4,-6.5 -25.4,-32.3 V 650.2 H 338 v 40.6 c 0,14 4.4,23.6 16.4,23.6 9,0 15.2,-6.2 17.7,-12.3 0.8,-1.8 1.2,-4.3 1.2,-6.8 v -45 h 13.4 z"
   class="st2" /><path
   style="fill:#3b789a;stroke:#282828;stroke-width:0.25;stroke-miterlimit:10"
   inkscape:connector-curvature="0"
   id="path12"
   d="m 408.9,670.2 c 0,-7.8 -0.2,-13.8 -0.6,-19.9 h 11.9 l 0.8,12.2 h 0.3 c 3.7,-6.8 12.2,-13.7 24.3,-13.7 10.2,0 26,6.1 26,31.3 V 724 h -13.4 v -42.5 c 0,-11.9 -4.4,-21.8 -17,-21.8 -8.7,0 -15.5,6.2 -18,13.7 -0.6,1.7 -0.9,4 -0.9,6.2 V 724 h -13.4 z"
   class="st2" /><path
   style="fill:#3b789a;stroke:#282828;stroke-width:0.25;stroke-miterlimit:10"
   inkscape:connector-curvature="0"
   id="path14"
   d="m 508.9,632.7 v 17.7 h 19.2 v 10.2 h -19.2 v 39.7 c 0,9.1 2.6,14.3 10,14.3 3.7,0 5.8,-0.3 7.8,-0.9 l 0.6,10.2 c -2.6,0.9 -6.7,1.8 -11.9,1.8 -6.2,0 -11.3,-2.1 -14.5,-5.6 -3.7,-4.1 -5.2,-10.7 -5.2,-19.3 v -40.2 h -11.4 v -10.2 h 11.4 v -13.7 z"
   class="st2" /><path
   style="fill:#3b789a;stroke:#282828;stroke-width:0.25;stroke-miterlimit:10"
   inkscape:connector-curvature="0"
   id="path16"
   d="m 558.1,629.6 c 0,4.6 -3.2,8.2 -8.5,8.2 -4.9,0 -8.1,-3.7 -8.1,-8.2 0,-4.6 3.3,-8.4 8.4,-8.4 4.8,0 8.2,3.7 8.2,8.4 z m -15,94.4 v -73.6 h 13.4 V 724 Z"
   class="st2" /><path
   style="fill:#3b789a;stroke:#282828;stroke-width:0.25;stroke-miterlimit:10"
   inkscape:connector-curvature="0"
   id="path18"
   d="m 578.7,670.2 c 0,-7.8 -0.3,-13.8 -0.6,-19.9 h 11.7 l 0.6,12 h 0.5 c 4.1,-7 11,-13.5 23.3,-13.5 9.9,0 17.5,6.1 20.7,14.8 h 0.3 c 2.3,-4.3 5.3,-7.3 8.4,-9.6 4.4,-3.3 9.1,-5.2 16.1,-5.2 9.9,0 24.3,6.4 24.3,32 V 724 h -13 v -41.5 c 0,-14.3 -5.3,-22.7 -16,-22.7 -7.8,0 -13.5,5.6 -16,12 -0.6,2 -1.1,4.3 -1.1,6.7 V 724 h -13.1 v -44.1 c 0,-11.7 -5.2,-20.1 -15.4,-20.1 -8.2,0 -14.5,6.7 -16.6,13.4 -0.8,1.8 -1.1,4.3 -1.1,6.5 V 724 h -13.1 v -53.8 z"
   class="st2" /><path
   style="fill:#3b789a;stroke:#282828;stroke-width:0.25;stroke-miterlimit:10"
   inkscape:connector-curvature="0"
   id="path20"
   d="m 713.1,689.6 c 0.3,18.1 11.7,25.6 25.3,25.6 9.6,0 15.5,-1.7 20.4,-3.8 l 2.4,9.6 c -4.7,2.1 -12.9,4.7 -24.7,4.7 -22.7,0 -36.2,-15.1 -36.2,-37.3 0,-22.2 13.1,-39.6 34.5,-39.6 24.2,0 30.4,21 30.4,34.5 0,2.7 -0.2,4.7 -0.5,6.2 h -51.6 z m 39.3,-9.6 c 0.2,-8.4 -3.5,-21.6 -18.6,-21.6 -13.7,0 -19.5,12.3 -20.5,21.6 z"
   class="st2" /><polygon
   style="fill:#529cb3"
   id="polygon24"
   points="116.1,575.3 217,515.6 113.8,536.7 "
   class="st3" /><polygon
   style="fill:#4d8da7"
   id="polygon26"
   points="217,515.6 206.1,437.5 113.8,536.7 "
   class="st4" /><polygon
   style="fill:#49828b"
   id="polygon28"
   points="206.1,437.5 230.1,463.7 217,515.6 "
   class="st5" /><polygon
   style="fill:#436e86"
   id="polygon30"
   points="230.1,463.7 256.6,548.8 217,515.6 "
   class="st6" /><polygon
   style="fill:#3d7494"
   id="polygon32"
   points="230.1,463.7 393.7,330.9 256.6,548.8 "
   class="st7" /><polygon
   style="fill:#41838d"
   id="polygon34"
   points="393.7,330.9 368.1,472 256.6,548.8 "
   class="st8" /><polygon
   style="fill:#427d82;stroke:none"
   id="polygon36"
   points="368.1,472 529.2,547.5 393.7,330.9 "
   class="st9" /><polygon
   style="fill:#447775;stroke:none"
   id="polygon38"
   points="529.2,547.5 393.7,330.9 616,369.3 "
   class="st10" /><polygon
   style="fill:#5299a2"
   id="polygon40"
   points="636.1,482.2 529.2,547.5 616,369.3 "
   class="st11" /><polygon
   style="fill:#4c8e88"
   id="polygon42"
   points="636.1,482.2 709.2,406.2 616,369.3 "
   class="st12" /><polygon
   style="fill:#5299a2"
   id="polygon44"
   points="636.1,482.2 697.9,465.3 709.2,406.2 "
   class="st11" /><polygon
   style="fill:#56a6a6"
   id="polygon46"
   points="636.1,482.2 626.9,539.3 697.9,465.3 "
   class="st13" /><polygon
   style="fill:#57ae9b"
   id="polygon48"
   points="626.9,539.3 778.9,518.3 697.9,465.3 "
   class="st14" /><polygon
   style="fill:#50a283"
   id="polygon50"
   points="810.2,478.5 778.9,518.3 697.9,465.3 "
   class="st15" /><path
   style="fill:#468d67"
   inkscape:connector-curvature="0"
   id="path52"
   d="m 778.9,518.3 c 1.6,-2 31.3,-39.8 31.3,-39.8 l 11,81.8 z"
   class="st16" /><polygon
   style="fill:#42875f"
   id="polygon54"
   points="821.1,560.3 851.6,553.4 810.2,478.5 "
   class="st17" /><polygon
   style="fill:#468e69"
   id="polygon56"
   points="720.2,311 709.2,406.2 689.9,331.5 "
   class="st18" /><polygon
   style="fill:#3f9e69"
   id="polygon58"
   points="731.9,311.5 709.2,406.2 720.2,311 "
   class="st19" /><polygon
   style="fill:#35aa57"
   id="polygon60"
   points="781.8,432.9 709.2,406.2 731.9,311.5 "
   class="st20" /><polygon
   style="fill:#3ca362"
   id="polygon62"
   points="781.8,432.9 828.2,371.2 731.9,311.5 "
   class="st21" /><path
   style="fill:#50a283"
   inkscape:connector-curvature="0"
   id="path64"
   d="M 828.2,371.2"
   class="st15" /><polygon
   style="fill:#2cb24b"
   id="polygon66"
   points="781.8,432.9 843.3,410.5 828.2,371.2 "
   class="st22" /><polygon
   style="fill:#438760"
   id="polygon68"
   points="687.5,253.3 689.9,331.5 720.2,311 "
   class="st23" /><path
   style="fill:#50a283"
   inkscape:connector-curvature="0"
   id="path70"
   d="M 541,302.2"
   class="st15" /><polygon
   style="fill:#43796e"
   id="polygon72"
   points="643.1,307.6 689.9,331.5 687.5,253.3 "
   class="st24" /><polygon
   style="fill:#42747f"
   id="polygon74"
   points="569.7,260.7 643.1,307.6 687.5,253.3 "
   class="st25" /><polygon
   style="fill:#48809f"
   id="polygon76"
   points="541,302.2 643.1,307.6 569.7,260.7 "
   class="st26" /><polygon
   style="fill:#4e95bb"
   id="polygon78"
   points="540,230.8 569.7,260.7 541,302.2 "
   class="st27" /><polygon
   style="fill:#e02127"
   id="polygon80"
   points="322.9,368.3 274.8,308.9 376.5,324.6 "
   class="st28" /><polygon
   style="fill:#438772"
   id="polygon82"
   points="616,369.3 709.2,406.2 689.9,331.5 "
   class="st29" /><path
   style="fill:#e02127;stroke:#282828;stroke-width:0.25;stroke-miterlimit:10"
   inkscape:connector-curvature="0"
   id="path86"
   d="m 1281.2,735.4 v 7.6 h -76.1 v -7.6 z"
   class="st1" /><path
   style="fill:#e02127;stroke:#282828;stroke-width:0.25;stroke-miterlimit:10"
   inkscape:connector-curvature="0"
   id="path88"
   d="m 1292.3,673.3 c 0,-8.7 -0.2,-16.1 -0.6,-23 h 11.7 l 0.6,14.6 h 0.5 c 3.3,-9.9 11.6,-16.1 20.5,-16.1 1.4,0 2.4,0.2 3.7,0.3 v 12.6 c -1.4,-0.3 -2.7,-0.3 -4.6,-0.3 -9.4,0 -16.1,7 -18,17 -0.3,1.8 -0.5,4.1 -0.5,6.2 V 724 h -13.4 v -50.7 z"
   class="st1" /><path
   style="fill:#3b789a;stroke:#282828;stroke-width:0.25;stroke-miterlimit:10"
   inkscape:connector-curvature="0"
   id="path90"
   d="m 1403.7,703.7 c 0,7.8 0.2,14.5 0.6,20.2 h -11.9 l -0.8,-12 h -0.3 c -3.3,5.9 -11.3,13.7 -24.3,13.7 -11.6,0 -25.4,-6.5 -25.4,-32.3 v -43.1 h 13.4 v 40.6 c 0,14 4.4,23.6 16.4,23.6 9,0 15.2,-6.2 17.7,-12.3 0.8,-1.8 1.2,-4.3 1.2,-6.8 v -45 h 13.4 z"
   class="st2" /><path
   style="fill:#3b789a;stroke:#282828;stroke-width:0.25;stroke-miterlimit:10"
   inkscape:connector-curvature="0"
   id="path92"
   d="m 1425.9,670.2 c 0,-7.8 -0.2,-13.8 -0.6,-19.9 h 11.9 l 0.8,12.2 h 0.3 c 3.7,-6.8 12.2,-13.7 24.3,-13.7 10.2,0 26,6.1 26,31.3 V 724 h -13.4 v -42.5 c 0,-11.9 -4.4,-21.8 -17,-21.8 -8.7,0 -15.5,6.2 -18,13.7 -0.6,1.7 -0.9,4 -0.9,6.2 V 724 h -13.4 z"
   class="st2" /><path
   style="fill:#3b789a;stroke:#282828;stroke-width:0.25;stroke-miterlimit:10"
   inkscape:connector-curvature="0"
   id="path94"
   d="m 1525.9,632.7 v 17.7 h 19.2 v 10.2 h -19.2 v 39.7 c 0,9.1 2.6,14.3 10,14.3 3.7,0 5.8,-0.3 7.8,-0.9 l 0.6,10.2 c -2.6,0.9 -6.7,1.8 -11.9,1.8 -6.2,0 -11.3,-2.1 -14.5,-5.6 -3.7,-4.1 -5.2,-10.7 -5.2,-19.3 v -40.2 h -11.4 v -10.2 h 11.4 v -13.7 z"
   class="st2" /><path
   style="fill:#3b789a;stroke:#282828;stroke-width:0.25;stroke-miterlimit:10"
   inkscape:connector-curvature="0"
   id="path96"
   d="m 1575.1,629.6 c 0,4.6 -3.2,8.2 -8.5,8.2 -4.9,0 -8.1,-3.7 -8.1,-8.2 0,-4.6 3.3,-8.4 8.4,-8.4 4.8,0 8.2,3.7 8.2,8.4 z m -15,94.4 v -73.6 h 13.4 V 724 Z"
   class="st2" /><path
   style="fill:#3b789a;stroke:#282828;stroke-width:0.25;stroke-miterlimit:10"
   inkscape:connector-curvature="0"
   id="path98"
   d="m 1595.7,670.2 c 0,-7.8 -0.3,-13.8 -0.6,-19.9 h 11.7 l 0.6,12 h 0.5 c 4.1,-7 11,-13.5 23.3,-13.5 9.9,0 17.5,6.1 20.7,14.8 h 0.3 c 2.3,-4.3 5.3,-7.3 8.4,-9.6 4.4,-3.3 9.1,-5.2 16.1,-5.2 9.9,0 24.3,6.4 24.3,32 V 724 h -13 v -41.5 c 0,-14.3 -5.3,-22.7 -16,-22.7 -7.8,0 -13.5,5.6 -16,12 -0.6,2 -1.1,4.3 -1.1,6.7 V 724 h -13.1 v -44.1 c 0,-11.7 -5.2,-20.1 -15.4,-20.1 -8.2,0 -14.5,6.7 -16.6,13.4 -0.8,1.8 -1.1,4.3 -1.1,6.5 V 724 h -13.1 v -53.8 z"
   class="st2" /><path
   style="fill:#3b789a;stroke:#282828;stroke-width:0.25;stroke-miterlimit:10"
   inkscape:connector-curvature="0"
   id="path100"
   d="m 1730.1,689.6 c 0.3,18.1 11.7,25.6 25.3,25.6 9.6,0 15.5,-1.7 20.4,-3.8 l 2.4,9.6 c -4.7,2.1 -12.9,4.7 -24.7,4.7 -22.7,0 -36.2,-15.1 -36.2,-37.3 0,-22.2 13.1,-39.6 34.5,-39.6 24.2,0 30.4,21 30.4,34.5 0,2.7 -0.2,4.7 -0.5,6.2 h -51.6 z m 39.3,-9.6 c 0.2,-8.4 -3.5,-21.6 -18.6,-21.6 -13.7,0 -19.5,12.3 -20.5,21.6 z"
   class="st2" /><polygon
   style="fill:#529cb3"
   id="polygon104"
   points="1133.1,575.3 1234,515.6 1130.8,536.7 "
   class="st3" /><polygon
   style="fill:#4d8da7"
   id="polygon106"
   points="1234,515.6 1223.1,437.5 1130.8,536.7 "
   class="st4" /><polygon
   style="fill:#49828b"
   id="polygon108"
   points="1223.1,437.5 1247.1,463.7 1234,515.6 "
   class="st5" /><polygon
   style="fill:#436e86"
   id="polygon110"
   points="1247.1,463.7 1273.6,548.8 1234,515.6 "
   class="st6" /><polygon
   style="fill:#3d7494"
   id="polygon112"
   points="1247.1,463.7 1410.7,330.9 1273.6,548.8 "
   class="st7" /><polygon
   style="fill:#41838d"
   id="polygon114"
   points="1410.7,330.9 1385.1,472 1273.6,548.8 "
   class="st8" /><polygon
   style="fill:#427d82"
   id="polygon116"
   points="1385.1,472 1546.2,547.5 1410.7,330.9 "
   class="st9" /><polygon
   style="fill:#447775"
   id="polygon118"
   points="1546.2,547.5 1410.7,330.9 1633,369.3 "
   class="st10" /><polygon
   style="fill:#5299a2"
   id="polygon120"
   points="1653.1,482.2 1546.2,547.5 1633,369.3 "
   class="st11" /><polygon
   style="fill:#4c8e88"
   id="polygon122"
   points="1653.1,482.2 1726.2,406.2 1633,369.3 "
   class="st12" /><polygon
   style="fill:#5299a2"
   id="polygon124"
   points="1653.1,482.2 1714.9,465.3 1726.2,406.2 "
   class="st11" /><polygon
   style="fill:#56a6a6"
   id="polygon126"
   points="1653.1,482.2 1643.9,539.3 1714.9,465.3 "
   class="st13" /><polygon
   style="fill:#57ae9b"
   id="polygon128"
   points="1643.9,539.3 1795.9,518.3 1714.9,465.3 "
   class="st14" /><polygon
   style="fill:#50a283"
   id="polygon130"
   points="1827.2,478.5 1795.9,518.3 1714.9,465.3 "
   class="st15" /><path
   style="fill:#468d67"
   inkscape:connector-curvature="0"
   id="path132"
   d="m 1795.9,518.3 c 1.6,-2 31.3,-39.8 31.3,-39.8 l 11,81.8 z"
   class="st16" /><polygon
   style="fill:#42875f"
   id="polygon134"
   points="1838.1,560.3 1868.6,553.4 1827.2,478.5 "
   class="st17" /><polygon
   style="fill:#468e69"
   id="polygon136"
   points="1737.2,311 1726.2,406.2 1706.9,331.5 "
   class="st18" /><polygon
   style="fill:#3f9e69"
   id="polygon138"
   points="1748.9,311.5 1726.2,406.2 1737.2,311 "
   class="st19" /><polygon
   style="fill:#35aa57"
   id="polygon140"
   points="1798.8,432.9 1726.2,406.2 1748.9,311.5 "
   class="st20" /><polygon
   style="fill:#3ca362"
   id="polygon142"
   points="1798.8,432.9 1845.2,371.2 1748.9,311.5 "
   class="st21" /><path
   style="fill:#50a283"
   inkscape:connector-curvature="0"
   id="path144"
   d="M 1845.2,371.2"
   class="st15" /><polygon
   style="fill:#2cb24b"
   id="polygon146"
   points="1798.8,432.9 1860.3,410.5 1845.2,371.2 "
   class="st22" /><polygon
   style="fill:#438760"
   id="polygon148"
   points="1704.5,253.3 1706.9,331.5 1737.2,311 "
   class="st23" /><path
   style="fill:#50a283"
   inkscape:connector-curvature="0"
   id="path150"
   d="M 1558,302.2"
   class="st15" /><polygon
   style="fill:#43796e"
   id="polygon152"
   points="1660.1,307.6 1706.9,331.5 1704.5,253.3 "
   class="st24" /><polygon
   style="fill:#42747f"
   id="polygon154"
   points="1586.7,260.7 1660.1,307.6 1704.5,253.3 "
   class="st25" /><polygon
   style="fill:#48809f"
   id="polygon156"
   points="1558,302.2 1660.1,307.6 1586.7,260.7 "
   class="st26" /><polygon
   style="fill:#4e95bb"
   id="polygon158"
   points="1557,230.8 1586.7,260.7 1558,302.2 "
   class="st27" /><polygon
   style="fill:#e02127"
   id="polygon160"
   points="1339.9,368.3 1291.8,308.9 1393.5,324.6 "
   class="st28" /><polygon
   style="fill:#438772"
   id="polygon162"
   points="1633,369.3 1726.2,406.2 1706.9,331.5 "
   class="st29" />

</svg>