<?xml version="1.0" encoding="utf-8"?>
<!-- Generator: Adobe Illustrator 21.1.0, SVG Export Plug-In . SVG Version: 6.00 Build 0)  -->
<svg version="1.1"
	 id="Layer_1" inkscape:export-filename="_runtime-logo.png" inkscape:export-xdpi="96" inkscape:export-ydpi="96" inkscape:version="0.92.4 (5da689c313, 2019-01-14)" sodipodi:docname="_runtime-logo.svg" xmlns:cc="http://creativecommons.org/ns#" xmlns:dc="http://purl.org/dc/elements/1.1/" xmlns:inkscape="http://www.inkscape.org/namespaces/inkscape" xmlns:rdf="http://www.w3.org/1999/02/22-rdf-syntax-ns#" xmlns:sodipodi="http://sodipodi.sourceforge.net/DTD/sodipodi-0.dtd" xmlns:svg="http://www.w3.org/2000/svg"
	 xmlns="http://www.w3.org/2000/svg" xmlns:xlink="http://www.w3.org/1999/xlink" x="0px" y="0px" viewBox="0 0 2048 2048"
	 style="enable-background:new 0 0 2048 2048;" xml:space="preserve">
<style type="text/css">
	.st0{fill:#FFFFFF;}
	.st1{fill:#E02127;}
	.st2{fill:#3B789A;}
	.st3{fill:#529CB3;}
	.st4{fill:#4D8DA7;}
	.st5{fill:#49828B;}
	.st6{fill:#436E86;}
	.st7{fill:#3D7494;}
	.st8{fill:#41838D;}
	.st9{fill:#427D82;}
	.st10{fill:#447775;}
	.st11{fill:#5299A2;}
	.st12{fill:#4C8E88;}
	.st13{fill:#56A6A6;}
	.st14{fill:#57AE9B;}
	.st15{fill:#50A283;}
	.st16{fill:#468D67;}
	.st17{fill:#42875F;}
	.st18{fill:#468E69;}
	.st19{fill:#3F9E69;}
	.st20{fill:#35AA57;}
	.st21{fill:#3CA362;}
	.st22{fill:#2CB24B;}
	.st23{fill:#438760;}
	.st24{fill:#43796E;}
	.st25{fill:#42747F;}
	.st26{fill:#48809F;}
	.st27{fill:#4E95BB;}
	.st28{fill:#438772;}
	.st29{fill:#2E2E2E;}
	.st30{fill:#5B5B5B;}
	.st31{fill:#7F7F7F;}
	.st32{fill:#696969;}
	.st33{fill:#888888;}
	.st34{fill:#7D7D7D;}
	.st35{fill:#727272;}
	.st36{fill:#646464;}
	.st37{fill:#676767;}
	.st38{fill:#757575;}
	.st39{fill:#6C6C6C;}
	.st40{fill:#858585;}
	.st41{fill:#7A7A7A;}
	.st42{fill:#8E8E8E;}
	.st43{fill:#929292;}
	.st44{fill:#868686;}
	.st45{fill:#747474;}
	.st46{fill:#6E6E6E;}
	.st47{fill:#7C7C7C;}
	.st48{fill:#7E7E7E;}
	.st49{fill:#686868;}
	.st50{fill:#666666;}
	.st51{fill:#737373;}
	.st52{fill:#848484;}
	.st53{fill:#707070;}
</style>
<sodipodi:namedview  bordercolor="#666666" borderopacity="1" gridtolerance="10" guidetolerance="10" id="namedview171" inkscape:bbox-nodes="true" inkscape:bbox-paths="true" inkscape:current-layer="Layer_1" inkscape:cx="1323.5212" inkscape:cy="868.92422" inkscape:guide-bbox="true" inkscape:object-nodes="true" inkscape:object-paths="true" inkscape:pagecheckerboard="true" inkscape:pageopacity="0" inkscape:pageshadow="2" inkscape:showpageshadow="false" inkscape:snap-bbox="true" inkscape:snap-bbox-edge-midpoints="true" inkscape:snap-bbox-midpoints="true" inkscape:snap-center="true" inkscape:snap-global="false" inkscape:snap-intersection-paths="true" inkscape:snap-midpoints="true" inkscape:snap-object-midpoints="true" inkscape:snap-page="true" inkscape:snap-smooth-nodes="true" inkscape:window-height="1177" inkscape:window-maximized="1" inkscape:window-width="1920" inkscape:window-x="1912" inkscape:window-y="-8" inkscape:zoom="0.22235194" objecttolerance="10" pagecolor="#ffffff" showgrid="false" showguides="true">
	
		<sodipodi:guide  id="guide941" inkscape:color="rgb(0,0,255)" inkscape:label="" inkscape:locked="false" orientation="1,0" position="1024,0">
		</sodipodi:guide>
	<sodipodi:guide  id="guide943" inkscape:locked="false" orientation="0,1" position="0,0"></sodipodi:guide>
	<sodipodi:guide  id="guide949" inkscape:locked="false" orientation="1,0" position="0,1024"></sodipodi:guide>
	<sodipodi:guide  id="guide951" inkscape:locked="false" orientation="0,1" position="0,1024"></sodipodi:guide>
	<sodipodi:guide  id="guide953" inkscape:locked="false" orientation="1,0" position="2048,1024"></sodipodi:guide>
	
		<sodipodi:guide  id="guide1160" inkscape:color="rgb(0,0,255)" inkscape:label="" inkscape:locked="false" orientation="0,1" position="0,512">
		</sodipodi:guide>
	
		<sodipodi:guide  id="guide1164" inkscape:color="rgb(0,0,255)" inkscape:label="" inkscape:locked="false" orientation="1,0" position="512,1024">
		</sodipodi:guide>
	
		<sodipodi:guide  id="guide1166" inkscape:color="rgb(0,0,255)" inkscape:label="" inkscape:locked="false" orientation="1,0" position="1536,1024">
		</sodipodi:guide>
	<sodipodi:guide  id="guide1352" inkscape:locked="false" orientation="0,1" position="2048,2048"></sodipodi:guide>
	
		<sodipodi:guide  id="guide1354" inkscape:color="rgb(0,0,255)" inkscape:label="" inkscape:locked="false" orientation="0,1" position="0,1536">
		</sodipodi:guide>
</sodipodi:namedview>
<rect id="rect1336" x="1116.2" y="92.2" class="st0" width="839.6" height="839.6"/>
<g id="g1074" transform="translate(-1.2207031e-4)">
	<path id="path6" inkscape:connector-curvature="0" class="st1" d="M279.1,733.5v7.6H203v-7.6H279.1z"/>
	<path id="path8" inkscape:connector-curvature="0" class="st1" d="M290.2,671.4c0-8.7-0.2-16.1-0.6-23h11.7l0.6,14.6h0.5
		c3.3-9.9,11.6-16.1,20.5-16.1c1.4,0,2.4,0.2,3.7,0.3v12.6c-1.4-0.3-2.7-0.3-4.6-0.3c-9.4,0-16.1,7-18,17c-0.3,1.8-0.5,4.1-0.5,6.2
		v39.4h-13.4L290.2,671.4z"/>
	<path id="path10" inkscape:connector-curvature="0" class="st2" d="M401.6,701.8c0,7.8,0.2,14.5,0.6,20.2h-11.9l-0.8-12h-0.3
		c-3.3,5.9-11.3,13.7-24.3,13.7c-11.6,0-25.4-6.5-25.4-32.3v-43.1h13.4v40.6c0,14,4.4,23.6,16.4,23.6c9,0,15.2-6.2,17.7-12.3
		c0.8-1.8,1.2-4.3,1.2-6.8v-45h13.4L401.6,701.8z"/>
	<path id="path12" inkscape:connector-curvature="0" class="st2" d="M423.8,668.3c0-7.8-0.2-13.8-0.6-19.9h11.9l0.8,12.2h0.3
		c3.7-6.8,12.2-13.7,24.3-13.7c10.2,0,26,6.1,26,31.3v43.9h-13.4v-42.5c0-11.9-4.4-21.8-17-21.8c-8.7,0-15.5,6.2-18,13.7
		c-0.6,1.7-0.9,4-0.9,6.2v44.4h-13.4L423.8,668.3z"/>
	<path id="path14" inkscape:connector-curvature="0" class="st2" d="M523.8,630.8v17.7H543v10.2h-19.2v39.7c0,9.1,2.6,14.3,10,14.3
		c3.7,0,5.8-0.3,7.8-0.9l0.6,10.2c-2.6,0.9-6.7,1.8-11.9,1.8c-6.2,0-11.3-2.1-14.5-5.6c-3.7-4.1-5.2-10.7-5.2-19.3v-40.2h-11.4
		v-10.2h11.4v-13.7L523.8,630.8z"/>
	<path id="path16" inkscape:connector-curvature="0" class="st2" d="M573,627.7c0,4.6-3.2,8.2-8.5,8.2c-4.9,0-8.1-3.7-8.1-8.2
		c0-4.6,3.3-8.4,8.4-8.4C569.6,619.3,573,623,573,627.7L573,627.7z M558,722.1v-73.6h13.4v73.6H558z"/>
	<path id="path18" inkscape:connector-curvature="0" class="st2" d="M593.6,668.3c0-7.8-0.3-13.8-0.6-19.9h11.7l0.6,12h0.5
		c4.1-7,11-13.5,23.3-13.5c9.9,0,17.5,6.1,20.7,14.8h0.3c2.3-4.3,5.3-7.3,8.4-9.6c4.4-3.3,9.1-5.2,16.1-5.2c9.9,0,24.3,6.4,24.3,32
		v43.2h-13v-41.5c0-14.3-5.3-22.7-16-22.7c-7.8,0-13.5,5.6-16,12c-0.6,2-1.1,4.3-1.1,6.7v45.5h-13.1V678c0-11.7-5.2-20.1-15.4-20.1
		c-8.2,0-14.5,6.7-16.6,13.4c-0.8,1.8-1.1,4.3-1.1,6.5v44.3h-13.1L593.6,668.3z"/>
	<path id="path20" inkscape:connector-curvature="0" class="st2" d="M728,687.7c0.3,18.1,11.7,25.6,25.3,25.6
		c9.6,0,15.5-1.7,20.4-3.8l2.4,9.6c-4.7,2.1-12.9,4.7-24.7,4.7c-22.7,0-36.2-15.1-36.2-37.3s13.1-39.6,34.5-39.6
		c24.2,0,30.4,21,30.4,34.5c0,2.7-0.2,4.7-0.5,6.2L728,687.7z M767.3,678.1c0.2-8.4-3.5-21.6-18.6-21.6c-13.7,0-19.5,12.3-20.5,21.6
		H767.3z"/>
</g>
<circle id="path955" class="st0" cx="512" cy="1536" r="440.3"/>
<g id="g1045" transform="translate(14.880184,-21.9097)">
	<path id="path957" inkscape:connector-curvature="0" class="st1" d="M264.2,1800.7v7.6h-76.1v-7.6H264.2z"/>
	<path id="path959" inkscape:connector-curvature="0" class="st1" d="M275.3,1738.6c0-8.7-0.2-16.1-0.6-23h11.7l0.6,14.6h0.5
		c3.3-9.9,11.6-16.1,20.5-16.1c1.4,0,2.4,0.2,3.7,0.3v12.6c-1.4-0.3-2.7-0.3-4.6-0.3c-9.4,0-16.1,7-18,17c-0.3,1.8-0.5,4.1-0.5,6.2
		v39.4h-13.4L275.3,1738.6z"/>
	<path id="path961" inkscape:connector-curvature="0" class="st2" d="M386.7,1769c0,7.8,0.2,14.5,0.6,20.2h-11.9l-0.8-12h-0.3
		c-3.3,5.9-11.3,13.7-24.3,13.7c-11.6,0-25.4-6.5-25.4-32.3v-43.1H338v40.6c0,14,4.4,23.6,16.4,23.6c9,0,15.2-6.2,17.7-12.3
		c0.8-1.8,1.2-4.3,1.2-6.8v-45h13.4V1769z"/>
	<path id="path963" inkscape:connector-curvature="0" class="st2" d="M408.9,1735.5c0-7.8-0.2-13.8-0.6-19.9h11.9l0.8,12.2h0.3
		c3.7-6.8,12.2-13.7,24.3-13.7c10.2,0,26,6.1,26,31.3v43.9h-13.4v-42.5c0-11.9-4.4-21.8-17-21.8c-8.7,0-15.5,6.2-18,13.7
		c-0.6,1.7-0.9,4-0.9,6.2v44.4h-13.4L408.9,1735.5z"/>
	<path id="path965" inkscape:connector-curvature="0" class="st2" d="M508.9,1698v17.7h19.2v10.2h-19.2v39.7c0,9.1,2.6,14.3,10,14.3
		c3.7,0,5.8-0.3,7.8-0.9l0.6,10.2c-2.6,0.9-6.7,1.8-11.9,1.8c-6.2,0-11.3-2.1-14.5-5.6c-3.7-4.1-5.2-10.7-5.2-19.3v-40.2h-11.4
		v-10.2h11.4V1702L508.9,1698z"/>
	<path id="path967" inkscape:connector-curvature="0" class="st2" d="M558.1,1694.9c0,4.6-3.2,8.2-8.5,8.2c-4.9,0-8.1-3.7-8.1-8.2
		c0-4.6,3.3-8.4,8.4-8.4C554.7,1686.5,558.1,1690.2,558.1,1694.9L558.1,1694.9z M543.1,1789.3v-73.6h13.4v73.6H543.1z"/>
	<path id="path969" inkscape:connector-curvature="0" class="st2" d="M578.7,1735.5c0-7.8-0.3-13.8-0.6-19.9h11.7l0.6,12h0.5
		c4.1-7,11-13.5,23.3-13.5c9.9,0,17.5,6.1,20.7,14.8h0.3c2.3-4.3,5.3-7.3,8.4-9.6c4.4-3.3,9.1-5.2,16.1-5.2c9.9,0,24.3,6.4,24.3,32
		v43.2h-13v-41.5c0-14.3-5.3-22.7-16-22.7c-7.8,0-13.5,5.6-16,12c-0.6,2-1.1,4.3-1.1,6.7v45.5h-13.1v-44.1
		c0-11.7-5.2-20.1-15.4-20.1c-8.2,0-14.5,6.7-16.6,13.4c-0.8,1.8-1.1,4.3-1.1,6.5v44.3h-13.1L578.7,1735.5z"/>
	<path id="path971" inkscape:connector-curvature="0" class="st2" d="M713.1,1754.9c0.3,18.1,11.7,25.6,25.3,25.6
		c9.6,0,15.5-1.7,20.4-3.8l2.4,9.6c-4.7,2.1-12.9,4.7-24.7,4.7c-22.7,0-36.2-15.1-36.2-37.3c0-22.2,13.1-39.6,34.5-39.6
		c24.2,0,30.4,21,30.4,34.5c0,2.7-0.2,4.7-0.5,6.2L713.1,1754.9z M752.4,1745.3c0.2-8.4-3.5-21.6-18.6-21.6
		c-13.7,0-19.5,12.3-20.5,21.6H752.4z"/>
</g>
<g id="g925" transform="rotate(-9.9845205,490.25793,417.42973)">
	<polygon id="polygon4" class="st2" points="626.9,539.3 636.1,482.2 539.2,549.5 368.1,464 256.6,548.8 210,513.6 116.1,575.3 
		120.8,533.7 206.1,437.5 236.1,465.7 393.7,330.9 616,369.3 695.9,324.5 647.1,297.6 551,295.2 530,245.8 569.7,260.7 683.5,257.3 
		718.2,312 731.9,304.5 828.2,371.2 843.3,410.5 781.8,432.9 709.2,406.2 697.9,465.3 810.2,478.5 851.6,553.4 821.1,560.3 
		778.9,518.3 	"/>
	<polygon id="polygon24" class="st3" points="120.8,533.7 116.1,575.3 210,513.6 	"/>
	<polygon id="polygon26" class="st4" points="120.8,533.7 210,513.6 206.1,437.5 	"/>
	<polygon id="polygon28" class="st5" points="210,513.6 206.1,437.5 236.1,465.7 	"/>
	<polygon id="polygon30" class="st6" points="210,513.6 236.1,465.7 256.6,548.8 	"/>
	<polygon id="polygon32" class="st7" points="256.6,548.8 236.1,465.7 393.7,330.9 	"/>
	<polygon id="polygon34" class="st8" points="256.6,548.8 393.7,330.9 368.1,464 	"/>
	<polygon id="polygon36" class="st9" points="393.7,330.9 368.1,464 539.2,549.5 	"/>
	<polygon id="polygon38" class="st10" points="616,369.3 539.2,549.5 393.7,330.9 	"/>
	<polygon id="polygon40" class="st11" points="616,369.3 636.1,482.2 539.2,549.5 	"/>
	<polygon id="polygon42" class="st12" points="616,369.3 636.1,482.2 709.2,406.2 	"/>
	<polygon id="polygon44" class="st11" points="709.2,406.2 636.1,482.2 697.9,465.3 	"/>
	<polygon id="polygon46" class="st13" points="697.9,465.3 636.1,482.2 626.9,539.3 	"/>
	<polygon id="polygon48" class="st14" points="697.9,465.3 626.9,539.3 778.9,518.3 	"/>
	<polygon id="polygon50" class="st15" points="697.9,465.3 810.2,478.5 778.9,518.3 	"/>
	<path id="path52" inkscape:connector-curvature="0" class="st16" d="M778.9,518.3c1.6-2,31.3-39.8,31.3-39.8l11,81.8L778.9,518.3z"
		/>
	<polygon id="polygon54" class="st17" points="810.2,478.5 821.1,560.3 851.6,553.4 	"/>
	<polygon id="polygon56" class="st18" points="695.9,324.5 718.2,312 709.2,406.2 	"/>
	<polygon id="polygon58" class="st19" points="718.2,312 731.9,304.5 709.2,406.2 	"/>
	<polygon id="polygon60" class="st20" points="731.9,304.5 781.8,432.9 709.2,406.2 	"/>
	<polygon id="polygon62" class="st21" points="731.9,304.5 781.8,432.9 828.2,371.2 	"/>
	<path id="path64" inkscape:connector-curvature="0" class="st15" d="M828.2,371.2"/>
	<polygon id="polygon66" class="st22" points="828.2,371.2 781.8,432.9 843.3,410.5 	"/>
	<polygon id="polygon68" class="st23" points="718.2,312 683.5,257.3 695.9,324.5 	"/>
	<path id="path70" inkscape:connector-curvature="0" class="st15" d="M551,295.2"/>
	<polygon id="polygon72" class="st24" points="683.5,257.3 647.1,297.6 695.9,324.5 	"/>
	<polygon id="polygon74" class="st25" points="683.5,257.3 569.7,260.7 647.1,297.6 	"/>
	<polygon id="polygon76" class="st26" points="569.7,260.7 551,295.2 647.1,297.6 	"/>
	<polygon id="polygon78" class="st27" points="551,295.2 530,245.8 569.7,260.7 	"/>
	<polygon id="polygon80" class="st1" points="381.5,326.6 327.9,370.3 279.8,310.9 	"/>
	<polygon id="polygon82" class="st28" points="695.9,324.5 616,369.3 709.2,406.2 	"/>
</g>
<g id="g1035" transform="rotate(-9.9845205,6473.721,940.1005)">
	<polygon id="polygon973" class="st2" points="683.5,257.3 718.2,312 731.9,304.5 828.2,371.2 843.3,410.5 781.8,432.9 709.2,406.2 
		697.9,465.3 810.2,478.5 851.6,553.4 821.1,560.3 778.9,518.3 626.9,539.3 636.1,482.2 539.2,549.5 368.1,464 256.6,548.8 
		210,513.6 116.1,575.3 120.8,533.7 206.1,437.5 236.1,465.7 393.7,330.9 616,369.3 695.9,324.5 647.1,297.6 551,295.2 530,245.8 
		569.7,260.7 	"/>
	<polygon id="polygon975" class="st3" points="210,513.6 120.8,533.7 116.1,575.3 	"/>
	<polygon id="polygon977" class="st4" points="206.1,437.5 120.8,533.7 210,513.6 	"/>
	<polygon id="polygon979" class="st5" points="236.1,465.7 210,513.6 206.1,437.5 	"/>
	<polygon id="polygon981" class="st6" points="256.6,548.8 210,513.6 236.1,465.7 	"/>
	<polygon id="polygon983" class="st7" points="393.7,330.9 256.6,548.8 236.1,465.7 	"/>
	<polygon id="polygon985" class="st8" points="368.1,464 256.6,548.8 393.7,330.9 	"/>
	<polygon id="polygon987" class="st9" points="539.2,549.5 393.7,330.9 368.1,464 	"/>
	<polygon id="polygon989" class="st10" points="393.7,330.9 616,369.3 539.2,549.5 	"/>
	<polygon id="polygon991" class="st11" points="539.2,549.5 616,369.3 636.1,482.2 	"/>
	<polygon id="polygon993" class="st12" points="709.2,406.2 616,369.3 636.1,482.2 	"/>
	<polygon id="polygon995" class="st11" points="697.9,465.3 709.2,406.2 636.1,482.2 	"/>
	<polygon id="polygon997" class="st13" points="626.9,539.3 697.9,465.3 636.1,482.2 	"/>
	<polygon id="polygon999" class="st14" points="778.9,518.3 697.9,465.3 626.9,539.3 	"/>
	<polygon id="polygon1001" class="st15" points="778.9,518.3 697.9,465.3 810.2,478.5 	"/>
	<path id="path1003" inkscape:connector-curvature="0" class="st16" d="M778.9,518.3c1.6-2,31.3-39.8,31.3-39.8l11,81.8L778.9,518.3
		z"/>
	<polygon id="polygon1005" class="st17" points="851.6,553.4 810.2,478.5 821.1,560.3 	"/>
	<polygon id="polygon1007" class="st18" points="709.2,406.2 695.9,324.5 718.2,312 	"/>
	<polygon id="polygon1009" class="st19" points="709.2,406.2 718.2,312 731.9,304.5 	"/>
	<polygon id="polygon1011" class="st20" points="709.2,406.2 731.9,304.5 781.8,432.9 	"/>
	<polygon id="polygon1013" class="st21" points="828.2,371.2 731.9,304.5 781.8,432.9 	"/>
	<path id="path1015" inkscape:connector-curvature="0" class="st15" d="M828.2,371.2"/>
	<polygon id="polygon1017" class="st22" points="843.3,410.5 828.2,371.2 781.8,432.9 	"/>
	<polygon id="polygon1019" class="st23" points="695.9,324.5 718.2,312 683.5,257.3 	"/>
	<path id="path1021" inkscape:connector-curvature="0" class="st15" d="M551,295.2"/>
	<polygon id="polygon1023" class="st24" points="695.9,324.5 683.5,257.3 647.1,297.6 	"/>
	<polygon id="polygon1025" class="st25" points="647.1,297.6 683.5,257.3 569.7,260.7 	"/>
	<polygon id="polygon1027" class="st26" points="647.1,297.6 569.7,260.7 551,295.2 	"/>
	<polygon id="polygon1029" class="st27" points="569.7,260.7 551,295.2 530,245.8 	"/>
	<polygon id="polygon1031" class="st1" points="279.8,310.9 381.5,326.6 327.9,370.3 	"/>
	<polygon id="polygon1033" class="st28" points="709.2,406.2 695.9,324.5 616,369.3 	"/>
</g>
<circle id="circle1170" class="st29" cx="1535.7" cy="1536" r="440.3"/>
<g id="g1188" transform="translate(1038.6161,-21.9097)">
	<path id="path1172" inkscape:connector-curvature="0" class="st1" d="M264.2,1800.7v7.6h-76.1v-7.6H264.2z"/>
	<path id="path1174" inkscape:connector-curvature="0" class="st1" d="M275.3,1738.6c0-8.7-0.2-16.1-0.6-23h11.7l0.6,14.6h0.5
		c3.3-9.9,11.6-16.1,20.5-16.1c1.4,0,2.4,0.2,3.7,0.3v12.6c-1.4-0.3-2.7-0.3-4.6-0.3c-9.4,0-16.1,7-18,17c-0.3,1.8-0.5,4.1-0.5,6.2
		v39.4h-13.4L275.3,1738.6z"/>
	<path id="path1176" inkscape:connector-curvature="0" class="st2" d="M386.7,1769c0,7.8,0.2,14.5,0.6,20.2h-11.9l-0.8-12h-0.3
		c-3.3,5.9-11.3,13.7-24.3,13.7c-11.6,0-25.4-6.5-25.4-32.3v-43.1H338v40.6c0,14,4.4,23.6,16.4,23.6c9,0,15.2-6.2,17.7-12.3
		c0.8-1.8,1.2-4.3,1.2-6.8v-45h13.4V1769z"/>
	<path id="path1178" inkscape:connector-curvature="0" class="st2" d="M408.9,1735.5c0-7.8-0.2-13.8-0.6-19.9h11.9l0.8,12.2h0.3
		c3.7-6.8,12.2-13.7,24.3-13.7c10.2,0,26,6.1,26,31.3v43.9h-13.4v-42.5c0-11.9-4.4-21.8-17-21.8c-8.7,0-15.5,6.2-18,13.7
		c-0.6,1.7-0.9,4-0.9,6.2v44.4h-13.4L408.9,1735.5z"/>
	<path id="path1180" inkscape:connector-curvature="0" class="st2" d="M508.9,1698v17.7h19.2v10.2h-19.2v39.7
		c0,9.1,2.6,14.3,10,14.3c3.7,0,5.8-0.3,7.8-0.9l0.6,10.2c-2.6,0.9-6.7,1.8-11.9,1.8c-6.2,0-11.3-2.1-14.5-5.6
		c-3.7-4.1-5.2-10.7-5.2-19.3v-40.2h-11.4v-10.2h11.4V1702L508.9,1698z"/>
	<path id="path1182" inkscape:connector-curvature="0" class="st2" d="M558.1,1694.9c0,4.6-3.2,8.2-8.5,8.2c-4.9,0-8.1-3.7-8.1-8.2
		c0-4.6,3.3-8.4,8.4-8.4C554.7,1686.5,558.1,1690.2,558.1,1694.9L558.1,1694.9z M543.1,1789.3v-73.6h13.4v73.6H543.1z"/>
	<path id="path1184" inkscape:connector-curvature="0" class="st2" d="M578.7,1735.5c0-7.8-0.3-13.8-0.6-19.9h11.7l0.6,12h0.5
		c4.1-7,11-13.5,23.3-13.5c9.9,0,17.5,6.1,20.7,14.8h0.3c2.3-4.3,5.3-7.3,8.4-9.6c4.4-3.3,9.1-5.2,16.1-5.2c9.9,0,24.3,6.4,24.3,32
		v43.2h-13v-41.5c0-14.3-5.3-22.7-16-22.7c-7.8,0-13.5,5.6-16,12c-0.6,2-1.1,4.3-1.1,6.7v45.5h-13.1v-44.1
		c0-11.7-5.2-20.1-15.4-20.1c-8.2,0-14.5,6.7-16.6,13.4c-0.8,1.8-1.1,4.3-1.1,6.5v44.3h-13.1L578.7,1735.5z"/>
	<path id="path1186" inkscape:connector-curvature="0" class="st2" d="M713.1,1754.9c0.3,18.1,11.7,25.6,25.3,25.6
		c9.6,0,15.5-1.7,20.4-3.8l2.4,9.6c-4.7,2.1-12.9,4.7-24.7,4.7c-22.7,0-36.2-15.1-36.2-37.3c0-22.2,13.1-39.6,34.5-39.6
		c24.2,0,30.4,21,30.4,34.5c0,2.7-0.2,4.7-0.5,6.2L713.1,1754.9z M752.4,1745.3c0.2-8.4-3.5-21.6-18.6-21.6
		c-13.7,0-19.5,12.3-20.5,21.6H752.4z"/>
</g>
<g id="g1252" transform="rotate(-9.9845205,6985.589,-4919.6932)">
	<polygon id="polygon1190" class="st2" points="210,513.6 116.1,575.3 120.8,533.7 206.1,437.5 236.1,465.7 393.7,330.9 616,369.3 
		695.9,324.5 647.1,297.6 551,295.2 530,245.8 569.7,260.7 683.5,257.3 718.2,312 731.9,304.5 828.2,371.2 843.3,410.5 781.8,432.9 
		709.2,406.2 697.9,465.3 810.2,478.5 851.6,553.4 821.1,560.3 778.9,518.3 626.9,539.3 636.1,482.2 539.2,549.5 368.1,464 
		256.6,548.8 	"/>
	<polygon id="polygon1192" class="st3" points="116.1,575.3 210,513.6 120.8,533.7 	"/>
	<polygon id="polygon1194" class="st4" points="210,513.6 206.1,437.5 120.8,533.7 	"/>
	<polygon id="polygon1196" class="st5" points="206.1,437.5 236.1,465.7 210,513.6 	"/>
	<polygon id="polygon1198" class="st6" points="236.1,465.7 256.6,548.8 210,513.6 	"/>
	<polygon id="polygon1200" class="st7" points="236.1,465.7 393.7,330.9 256.6,548.8 	"/>
	<polygon id="polygon1202" class="st8" points="393.7,330.9 368.1,464 256.6,548.8 	"/>
	<polygon id="polygon1204" class="st9" points="368.1,464 539.2,549.5 393.7,330.9 	"/>
	<polygon id="polygon1206" class="st10" points="539.2,549.5 393.7,330.9 616,369.3 	"/>
	<polygon id="polygon1208" class="st11" points="636.1,482.2 539.2,549.5 616,369.3 	"/>
	<polygon id="polygon1210" class="st12" points="636.1,482.2 709.2,406.2 616,369.3 	"/>
	<polygon id="polygon1212" class="st11" points="636.1,482.2 697.9,465.3 709.2,406.2 	"/>
	<polygon id="polygon1214" class="st13" points="636.1,482.2 626.9,539.3 697.9,465.3 	"/>
	<polygon id="polygon1216" class="st14" points="626.9,539.3 778.9,518.3 697.9,465.3 	"/>
	<polygon id="polygon1218" class="st15" points="810.2,478.5 778.9,518.3 697.9,465.3 	"/>
	<path id="path1220" inkscape:connector-curvature="0" class="st16" d="M778.9,518.3c1.6-2,31.3-39.8,31.3-39.8l11,81.8L778.9,518.3
		z"/>
	<polygon id="polygon1222" class="st17" points="821.1,560.3 851.6,553.4 810.2,478.5 	"/>
	<polygon id="polygon1224" class="st18" points="718.2,312 709.2,406.2 695.9,324.5 	"/>
	<polygon id="polygon1226" class="st19" points="731.9,304.5 709.2,406.2 718.2,312 	"/>
	<polygon id="polygon1228" class="st20" points="781.8,432.9 709.2,406.2 731.9,304.5 	"/>
	<polygon id="polygon1230" class="st21" points="781.8,432.9 828.2,371.2 731.9,304.5 	"/>
	<path id="path1232" inkscape:connector-curvature="0" class="st15" d="M828.2,371.2"/>
	<polygon id="polygon1234" class="st22" points="781.8,432.9 843.3,410.5 828.2,371.2 	"/>
	<polygon id="polygon1236" class="st23" points="683.5,257.3 695.9,324.5 718.2,312 	"/>
	<path id="path1238" inkscape:connector-curvature="0" class="st15" d="M551,295.2"/>
	<polygon id="polygon1240" class="st24" points="647.1,297.6 695.9,324.5 683.5,257.3 	"/>
	<polygon id="polygon1242" class="st25" points="569.7,260.7 647.1,297.6 683.5,257.3 	"/>
	<polygon id="polygon1244" class="st26" points="551,295.2 647.1,297.6 569.7,260.7 	"/>
	<polygon id="polygon1246" class="st27" points="530,245.8 569.7,260.7 551,295.2 	"/>
	<polygon id="polygon1248" class="st1" points="327.9,370.3 279.8,310.9 381.5,326.6 	"/>
	<polygon id="polygon1250" class="st28" points="616,369.3 709.2,406.2 695.9,324.5 	"/>
</g>
<g id="g1270" transform="translate(1020.8946)">
	<path id="path1254" inkscape:connector-curvature="0" class="st30" d="M279.1,733.5v7.6H203v-7.6H279.1z"/>
	<path id="path1256" inkscape:connector-curvature="0" class="st30" d="M290.2,671.4c0-8.7-0.2-16.1-0.6-23h11.7l0.6,14.6h0.5
		c3.3-9.9,11.6-16.1,20.5-16.1c1.4,0,2.4,0.2,3.7,0.3v12.6c-1.4-0.3-2.7-0.3-4.6-0.3c-9.4,0-16.1,7-18,17c-0.3,1.8-0.5,4.1-0.5,6.2
		v39.4h-13.4L290.2,671.4z"/>
	<path id="path1258" inkscape:connector-curvature="0" class="st31" d="M401.6,701.8c0,7.8,0.2,14.5,0.6,20.2h-11.9l-0.8-12h-0.3
		c-3.3,5.9-11.3,13.7-24.3,13.7c-11.6,0-25.4-6.5-25.4-32.3v-43.1h13.4v40.6c0,14,4.4,23.6,16.4,23.6c9,0,15.2-6.2,17.7-12.3
		c0.8-1.8,1.2-4.3,1.2-6.8v-45h13.4L401.6,701.8z"/>
	<path id="path1260" inkscape:connector-curvature="0" class="st31" d="M423.8,668.3c0-7.8-0.2-13.8-0.6-19.9h11.9l0.8,12.2h0.3
		c3.7-6.8,12.2-13.7,24.3-13.7c10.2,0,26,6.1,26,31.3v43.9h-13.4v-42.5c0-11.9-4.4-21.8-17-21.8c-8.7,0-15.5,6.2-18,13.7
		c-0.6,1.7-0.9,4-0.9,6.2v44.4h-13.4L423.8,668.3z"/>
	<path id="path1262" inkscape:connector-curvature="0" class="st31" d="M523.8,630.8v17.7H543v10.2h-19.2v39.7
		c0,9.1,2.6,14.3,10,14.3c3.7,0,5.8-0.3,7.8-0.9l0.6,10.2c-2.6,0.9-6.7,1.8-11.9,1.8c-6.2,0-11.3-2.1-14.5-5.6
		c-3.7-4.1-5.2-10.7-5.2-19.3v-40.2h-11.4v-10.2h11.4v-13.7L523.8,630.8z"/>
	<path id="path1264" inkscape:connector-curvature="0" class="st31" d="M573,627.7c0,4.6-3.2,8.2-8.5,8.2c-4.9,0-8.1-3.7-8.1-8.2
		c0-4.6,3.3-8.4,8.4-8.4C569.6,619.3,573,623,573,627.7L573,627.7z M558,722.1v-73.6h13.4v73.6H558z"/>
	<path id="path1266" inkscape:connector-curvature="0" class="st31" d="M593.6,668.3c0-7.8-0.3-13.8-0.6-19.9h11.7l0.6,12h0.5
		c4.1-7,11-13.5,23.3-13.5c9.9,0,17.5,6.1,20.7,14.8h0.3c2.3-4.3,5.3-7.3,8.4-9.6c4.4-3.3,9.1-5.2,16.1-5.2c9.9,0,24.3,6.4,24.3,32
		v43.2h-13v-41.5c0-14.3-5.3-22.7-16-22.7c-7.8,0-13.5,5.6-16,12c-0.6,2-1.1,4.3-1.1,6.7v45.5h-13.1V678c0-11.7-5.2-20.1-15.4-20.1
		c-8.2,0-14.5,6.7-16.6,13.4c-0.8,1.8-1.1,4.3-1.1,6.5v44.3h-13.1L593.6,668.3z"/>
	<path id="path1268" inkscape:connector-curvature="0" class="st31" d="M728,687.7c0.3,18.1,11.7,25.6,25.3,25.6
		c9.6,0,15.5-1.7,20.4-3.8l2.4,9.6c-4.7,2.1-12.9,4.7-24.7,4.7c-22.7,0-36.2-15.1-36.2-37.3s13.1-39.6,34.5-39.6
		c24.2,0,30.4,21,30.4,34.5c0,2.7-0.2,4.7-0.5,6.2L728,687.7z M767.3,678.1c0.2-8.4-3.5-21.6-18.6-21.6c-13.7,0-19.5,12.3-20.5,21.6
		H767.3z"/>
</g>
<g id="g1334" transform="rotate(-9.9845205,1000.7053,-5426.1023)">
	<polygon id="polygon1272" class="st32" points="530,245.8 569.7,260.7 683.5,257.3 718.2,312 731.9,304.5 828.2,371.2 843.3,410.5 
		781.8,432.9 709.2,406.2 697.9,465.3 810.2,478.5 851.6,553.4 821.1,560.3 778.9,518.3 626.9,539.3 636.1,482.2 539.2,549.5 
		368.1,464 256.6,548.8 210,513.6 116.1,575.3 120.8,533.7 206.1,437.5 236.1,465.7 393.7,330.9 616,369.3 695.9,324.5 647.1,297.6 
		551,295.2 	"/>
	<polygon id="polygon1274" class="st33" points="120.8,533.7 116.1,575.3 210,513.6 	"/>
	<polygon id="polygon1276" class="st34" points="120.8,533.7 210,513.6 206.1,437.5 	"/>
	<polygon id="polygon1278" class="st35" points="210,513.6 206.1,437.5 236.1,465.7 	"/>
	<polygon id="polygon1280" class="st36" points="210,513.6 236.1,465.7 256.6,548.8 	"/>
	<polygon id="polygon1282" class="st37" points="256.6,548.8 236.1,465.7 393.7,330.9 	"/>
	<polygon id="polygon1284" class="st38" points="256.6,548.8 393.7,330.9 368.1,464 	"/>
	<polygon id="polygon1286" class="st39" points="393.7,330.9 368.1,464 539.2,549.5 	"/>
	<polygon id="polygon1288" class="st37" points="616,369.3 539.2,549.5 393.7,330.9 	"/>
	<polygon id="polygon1290" class="st40" points="616,369.3 636.1,482.2 539.2,549.5 	"/>
	<polygon id="polygon1292" class="st41" points="616,369.3 636.1,482.2 709.2,406.2 	"/>
	<polygon id="polygon1294" class="st40" points="709.2,406.2 636.1,482.2 697.9,465.3 	"/>
	<polygon id="polygon1296" class="st42" points="697.9,465.3 636.1,482.2 626.9,539.3 	"/>
	<polygon id="polygon1298" class="st43" points="697.9,465.3 626.9,539.3 778.9,518.3 	"/>
	<polygon id="polygon1300" class="st44" points="697.9,465.3 810.2,478.5 778.9,518.3 	"/>
	<path id="path1302" inkscape:connector-curvature="0" class="st45" d="M778.9,518.3c1.6-2,31.3-39.8,31.3-39.8l11,81.8L778.9,518.3
		z"/>
	<polygon id="polygon1304" class="st46" points="810.2,478.5 821.1,560.3 851.6,553.4 	"/>
	<polygon id="polygon1306" class="st45" points="695.9,324.5 718.2,312 709.2,406.2 	"/>
	<polygon id="polygon1308" class="st47" points="718.2,312 731.9,304.5 709.2,406.2 	"/>
	<polygon id="polygon1310" class="st48" points="731.9,304.5 781.8,432.9 709.2,406.2 	"/>
	<polygon id="polygon1312" class="st34" points="731.9,304.5 781.8,432.9 828.2,371.2 	"/>
	<path id="path1314" inkscape:connector-curvature="0" class="st44" d="M828.2,371.2"/>
	<polygon id="polygon1316" class="st48" points="828.2,371.2 781.8,432.9 843.3,410.5 	"/>
	<polygon id="polygon1318" class="st46" points="718.2,312 683.5,257.3 695.9,324.5 	"/>
	<path id="path1320" inkscape:connector-curvature="0" class="st44" d="M551,295.2"/>
	<polygon id="polygon1322" class="st49" points="683.5,257.3 647.1,297.6 695.9,324.5 	"/>
	<polygon id="polygon1324" class="st50" points="683.5,257.3 569.7,260.7 647.1,297.6 	"/>
	<polygon id="polygon1326" class="st51" points="569.7,260.7 551,295.2 647.1,297.6 	"/>
	<polygon id="polygon1328" class="st52" points="551,295.2 530,245.8 569.7,260.7 	"/>
	<polygon id="polygon1330" class="st30" points="381.5,326.6 327.9,370.3 279.8,310.9 	"/>
	<polygon id="polygon1332" class="st53" points="695.9,324.5 616,369.3 709.2,406.2 	"/>
</g>
</svg>
