<?xml version="1.0" encoding="UTF-8" standalone="no"?>
<!-- Generator: Adobe Illustrator 21.1.0, SVG Export Plug-In . SVG Version: 6.00 Build 0)  -->

<svg
   xmlns:dc="http://purl.org/dc/elements/1.1/"
   xmlns:cc="http://creativecommons.org/ns#"
   xmlns:rdf="http://www.w3.org/1999/02/22-rdf-syntax-ns#"
   xmlns:svg="http://www.w3.org/2000/svg"
   xmlns="http://www.w3.org/2000/svg"
   xmlns:sodipodi="http://sodipodi.sourceforge.net/DTD/sodipodi-0.dtd"
   xmlns:inkscape="http://www.inkscape.org/namespaces/inkscape"
   version="1.1"
   id="Layer_1"
   inkscape:version="0.92.4 (5da689c313, 2019-01-14)"
   sodipodi:docname="_runtime-logo.svg"
   x="0px"
   y="0px"
   viewBox="0 0 2048 2048"
   xml:space="preserve"
   width="2048"
   height="2048"
   inkscape:export-filename="_runtime-logo.png"
   inkscape:export-xdpi="96"
   inkscape:export-ydpi="96"><metadata
   id="metadata87"><rdf:RDF><cc:Work
       rdf:about=""><dc:format>image/svg+xml</dc:format><dc:type
         rdf:resource="http://purl.org/dc/dcmitype/StillImage" /><dc:title></dc:title></cc:Work></rdf:RDF></metadata><defs
   id="defs85" />
<style
   type="text/css"
   id="style2">
	.st0{fill:#3B789A;}
	.st1{fill:#3F3C3B;}
	.st2{fill:#E02127;}
	.st3{fill:#529CB3;}
	.st4{fill:#4D8DA7;}
	.st5{fill:#49828B;}
	.st6{fill:#436E86;}
	.st7{fill:#3D7494;}
	.st8{fill:#41838D;}
	.st9{fill:#427D82;}
	.st10{fill:#447775;}
	.st11{fill:#5299A2;}
	.st12{fill:#4C8E88;}
	.st13{fill:#56A6A6;}
	.st14{fill:#57AE9B;}
	.st15{fill:#50A283;}
	.st16{fill:#468D67;}
	.st17{fill:#42875F;}
	.st18{fill:#468E69;}
	.st19{fill:#3F9E69;}
	.st20{fill:#35AA57;}
	.st21{fill:#3CA362;}
	.st22{fill:#2CB24B;}
	.st23{fill:#438760;}
	.st24{fill:#43796E;}
	.st25{fill:#42747F;}
	.st26{fill:#48809F;}
	.st27{fill:#4E95BB;}
	.st28{fill:#438772;}
</style>

<sodipodi:namedview
   bordercolor="#666666"
   borderopacity="1"
   gridtolerance="10"
   guidetolerance="10"
   id="namedview171"
   inkscape:current-layer="Layer_1"
   inkscape:cx="1323.5212"
   inkscape:cy="868.92422"
   inkscape:pageopacity="0"
   inkscape:pageshadow="2"
   inkscape:window-height="1177"
   inkscape:window-maximized="1"
   inkscape:window-width="1920"
   inkscape:window-x="1912"
   inkscape:window-y="-8"
   inkscape:zoom="0.22235194"
   objecttolerance="10"
   pagecolor="#ffffff"
   showgrid="false"
   showguides="true"
   inkscape:guide-bbox="true"
   inkscape:pagecheckerboard="true"
   inkscape:showpageshadow="false"
   inkscape:snap-page="true"
   inkscape:snap-midpoints="true"
   inkscape:object-nodes="true"
   inkscape:snap-center="true"
   inkscape:snap-global="false"
   inkscape:snap-bbox="true"
   inkscape:snap-bbox-edge-midpoints="true"
   inkscape:bbox-nodes="true"
   inkscape:bbox-paths="true"
   inkscape:snap-bbox-midpoints="true"
   inkscape:object-paths="true"
   inkscape:snap-intersection-paths="true"
   inkscape:snap-smooth-nodes="true"
   inkscape:snap-object-midpoints="true">
	<sodipodi:guide
   position="1024,0"
   orientation="1,0"
   id="guide941"
   inkscape:locked="false"
   inkscape:label=""
   inkscape:color="rgb(0,0,255)" /><sodipodi:guide
   position="0,0"
   orientation="0,1"
   id="guide943"
   inkscape:locked="false" /><sodipodi:guide
   position="0,1024"
   orientation="1,0"
   id="guide949"
   inkscape:locked="false" /><sodipodi:guide
   position="0,1024"
   orientation="0,1"
   id="guide951"
   inkscape:locked="false" /><sodipodi:guide
   position="2048,1024"
   orientation="1,0"
   id="guide953"
   inkscape:locked="false" /><sodipodi:guide
   position="0,512"
   orientation="0,1"
   id="guide1160"
   inkscape:locked="false"
   inkscape:label=""
   inkscape:color="rgb(0,0,255)" /><sodipodi:guide
   position="512,1024"
   orientation="1,0"
   id="guide1164"
   inkscape:locked="false"
   inkscape:label=""
   inkscape:color="rgb(0,0,255)" /><sodipodi:guide
   position="1536,1024"
   orientation="1,0"
   id="guide1166"
   inkscape:locked="false"
   inkscape:label=""
   inkscape:color="rgb(0,0,255)" /><sodipodi:guide
   position="2048,2048"
   orientation="0,1"
   id="guide1352"
   inkscape:locked="false" /><sodipodi:guide
   position="0,1536"
   orientation="0,1"
   id="guide1354"
   inkscape:locked="false"
   inkscape:label=""
   inkscape:color="rgb(0,0,255)" /></sodipodi:namedview>








<rect
   style="opacity:1;vector-effect:none;fill:#ffffff;fill-opacity:1;fill-rule:evenodd;stroke:none;stroke-width:0.70511585;stroke-linecap:butt;stroke-linejoin:miter;stroke-miterlimit:4;stroke-dasharray:none;stroke-dashoffset:0;stroke-opacity:1"
   id="rect1336"
   width="839.55292"
   height="839.55273"
   x="1116.2235"
   y="92.223579" /><g
   id="g1074"
   transform="translate(-1.2207031e-4)"><path
     d="m 279.08031,733.49032 v 7.6 h -76.1 v -7.6 z"
     class="st2"
     inkscape:connector-curvature="0"
     id="path6"
     style="fill:#e02127;stroke:none" /><path
     d="m 290.18031,671.39032 c 0,-8.7 -0.2,-16.1 -0.6,-23 h 11.7 l 0.6,14.6 h 0.5 c 3.3,-9.9 11.6,-16.1 20.5,-16.1 1.4,0 2.4,0.2 3.7,0.3 v 12.6 c -1.4,-0.3 -2.7,-0.3 -4.6,-0.3 -9.4,0 -16.1,7 -18,17 -0.3,1.8 -0.5,4.1 -0.5,6.2 v 39.4 h -13.4 z"
     class="st2"
     inkscape:connector-curvature="0"
     id="path8"
     style="fill:#e02127" /><path
     d="m 401.58031,701.79032 c 0,7.8 0.2,14.5 0.6,20.2 h -11.9 l -0.8,-12 h -0.3 c -3.3,5.9 -11.3,13.7 -24.3,13.7 -11.6,0 -25.4,-6.5 -25.4,-32.3 v -43.1 h 13.4 v 40.6 c 0,14 4.4,23.6 16.4,23.6 9,0 15.2,-6.2 17.7,-12.3 0.8,-1.8 1.2,-4.3 1.2,-6.8 v -45 h 13.4 z"
     class="st0"
     inkscape:connector-curvature="0"
     id="path10"
     style="fill:#3b789a" /><path
     d="m 423.78031,668.29032 c 0,-7.8 -0.2,-13.8 -0.6,-19.9 h 11.9 l 0.8,12.2 h 0.3 c 3.7,-6.8 12.2,-13.7 24.3,-13.7 10.2,0 26,6.1 26,31.3 v 43.9 h -13.4 v -42.5 c 0,-11.9 -4.4,-21.8 -17,-21.8 -8.7,0 -15.5,6.2 -18,13.7 -0.6,1.7 -0.9,4 -0.9,6.2 v 44.4 h -13.4 z"
     class="st0"
     inkscape:connector-curvature="0"
     id="path12"
     style="fill:#3b789a" /><path
     d="m 523.78031,630.79032 v 17.7 h 19.2 v 10.2 h -19.2 v 39.7 c 0,9.1 2.6,14.3 10,14.3 3.7,0 5.8,-0.3 7.8,-0.9 l 0.6,10.2 c -2.6,0.9 -6.7,1.8 -11.9,1.8 -6.2,0 -11.3,-2.1 -14.5,-5.6 -3.7,-4.1 -5.2,-10.7 -5.2,-19.3 v -40.2 h -11.4 v -10.2 h 11.4 v -13.7 z"
     class="st0"
     inkscape:connector-curvature="0"
     id="path14"
     style="fill:#3b789a" /><path
     d="m 572.98031,627.69032 c 0,4.6 -3.2,8.2 -8.5,8.2 -4.9,0 -8.1,-3.7 -8.1,-8.2 0,-4.6 3.3,-8.4 8.4,-8.4 4.8,0 8.2,3.7 8.2,8.4 z m -15,94.4 v -73.6 h 13.4 v 73.6 z"
     class="st0"
     inkscape:connector-curvature="0"
     id="path16"
     style="fill:#3b789a" /><path
     d="m 593.58031,668.29032 c 0,-7.8 -0.3,-13.8 -0.6,-19.9 h 11.7 l 0.6,12 h 0.5 c 4.1,-7 11,-13.5 23.3,-13.5 9.9,0 17.5,6.1 20.7,14.8 h 0.3 c 2.3,-4.3 5.3,-7.3 8.4,-9.6 4.4,-3.3 9.1,-5.2 16.1,-5.2 9.9,0 24.3,6.4 24.3,32 v 43.2 h -13 v -41.5 c 0,-14.3 -5.3,-22.7 -16,-22.7 -7.8,0 -13.5,5.6 -16,12 -0.6,2 -1.1,4.3 -1.1,6.7 v 45.5 h -13.1 v -44.1 c 0,-11.7 -5.2,-20.1 -15.4,-20.1 -8.2,0 -14.5,6.7 -16.6,13.4 -0.8,1.8 -1.1,4.3 -1.1,6.5 v 44.3 h -13.1 z"
     class="st0"
     inkscape:connector-curvature="0"
     id="path18"
     style="fill:#3b789a" /><path
     d="m 727.98031,687.69032 c 0.3,18.1 11.7,25.6 25.3,25.6 9.6,0 15.5,-1.7 20.4,-3.8 l 2.4,9.6 c -4.7,2.1 -12.9,4.7 -24.7,4.7 -22.7,0 -36.2,-15.1 -36.2,-37.3 0,-22.2 13.1,-39.6 34.5,-39.6 24.2,0 30.4,21 30.4,34.5 0,2.7 -0.2,4.7 -0.5,6.2 z m 39.3,-9.6 c 0.2,-8.4 -3.5,-21.6 -18.6,-21.6 -13.7,0 -19.5,12.3 -20.5,21.6 z"
     class="st0"
     inkscape:connector-curvature="0"
     id="path20"
     style="fill:#3b789a" /></g><circle
   r="440.3342"
   cy="1536"
   cx="511.99988"
   id="path955"
   style="opacity:1;vector-effect:none;fill:#ffffff;fill-opacity:1;fill-rule:evenodd;stroke:none;stroke-width:0.86002773;stroke-linecap:butt;stroke-linejoin:miter;stroke-miterlimit:4;stroke-dasharray:none;stroke-dashoffset:0;stroke-opacity:1" /><g
   id="g1045"
   transform="translate(14.880184,-21.9097)"><path
     style="fill:#e02127;stroke:none"
     id="path957"
     inkscape:connector-curvature="0"
     class="st2"
     d="m 264.2,1800.7416 v 7.6 h -76.1 v -7.6 z" /><path
     style="fill:#e02127"
     id="path959"
     inkscape:connector-curvature="0"
     class="st2"
     d="m 275.3,1738.6416 c 0,-8.7 -0.2,-16.1 -0.6,-23 h 11.7 l 0.6,14.6 h 0.5 c 3.3,-9.9 11.6,-16.1 20.5,-16.1 1.4,0 2.4,0.2 3.7,0.3 v 12.6 c -1.4,-0.3 -2.7,-0.3 -4.6,-0.3 -9.4,0 -16.1,7 -18,17 -0.3,1.8 -0.5,4.1 -0.5,6.2 v 39.4 h -13.4 z" /><path
     style="fill:#3b789a"
     id="path961"
     inkscape:connector-curvature="0"
     class="st0"
     d="m 386.7,1769.0416 c 0,7.8 0.2,14.5 0.6,20.2 h -11.9 l -0.8,-12 h -0.3 c -3.3,5.9 -11.3,13.7 -24.3,13.7 -11.6,0 -25.4,-6.5 -25.4,-32.3 v -43.1 H 338 v 40.6 c 0,14 4.4,23.6 16.4,23.6 9,0 15.2,-6.2 17.7,-12.3 0.8,-1.8 1.2,-4.3 1.2,-6.8 v -45 h 13.4 z" /><path
     style="fill:#3b789a"
     id="path963"
     inkscape:connector-curvature="0"
     class="st0"
     d="m 408.9,1735.5416 c 0,-7.8 -0.2,-13.8 -0.6,-19.9 h 11.9 l 0.8,12.2 h 0.3 c 3.7,-6.8 12.2,-13.7 24.3,-13.7 10.2,0 26,6.1 26,31.3 v 43.9 h -13.4 v -42.5 c 0,-11.9 -4.4,-21.8 -17,-21.8 -8.7,0 -15.5,6.2 -18,13.7 -0.6,1.7 -0.9,4 -0.9,6.2 v 44.4 h -13.4 z" /><path
     style="fill:#3b789a"
     id="path965"
     inkscape:connector-curvature="0"
     class="st0"
     d="m 508.9,1698.0416 v 17.7 h 19.2 v 10.2 h -19.2 v 39.7 c 0,9.1 2.6,14.3 10,14.3 3.7,0 5.8,-0.3 7.8,-0.9 l 0.6,10.2 c -2.6,0.9 -6.7,1.8 -11.9,1.8 -6.2,0 -11.3,-2.1 -14.5,-5.6 -3.7,-4.1 -5.2,-10.7 -5.2,-19.3 v -40.2 h -11.4 v -10.2 h 11.4 v -13.7 z" /><path
     style="fill:#3b789a"
     id="path967"
     inkscape:connector-curvature="0"
     class="st0"
     d="m 558.1,1694.9416 c 0,4.6 -3.2,8.2 -8.5,8.2 -4.9,0 -8.1,-3.7 -8.1,-8.2 0,-4.6 3.3,-8.4 8.4,-8.4 4.8,0 8.2,3.7 8.2,8.4 z m -15,94.4 v -73.6 h 13.4 v 73.6 z" /><path
     style="fill:#3b789a"
     id="path969"
     inkscape:connector-curvature="0"
     class="st0"
     d="m 578.7,1735.5416 c 0,-7.8 -0.3,-13.8 -0.6,-19.9 h 11.7 l 0.6,12 h 0.5 c 4.1,-7 11,-13.5 23.3,-13.5 9.9,0 17.5,6.1 20.7,14.8 h 0.3 c 2.3,-4.3 5.3,-7.3 8.4,-9.6 4.4,-3.3 9.1,-5.2 16.1,-5.2 9.9,0 24.3,6.4 24.3,32 v 43.2 h -13 v -41.5 c 0,-14.3 -5.3,-22.7 -16,-22.7 -7.8,0 -13.5,5.6 -16,12 -0.6,2 -1.1,4.3 -1.1,6.7 v 45.5 h -13.1 v -44.1 c 0,-11.7 -5.2,-20.1 -15.4,-20.1 -8.2,0 -14.5,6.7 -16.6,13.4 -0.8,1.8 -1.1,4.3 -1.1,6.5 v 44.3 h -13.1 z" /><path
     style="fill:#3b789a"
     id="path971"
     inkscape:connector-curvature="0"
     class="st0"
     d="m 713.1,1754.9416 c 0.3,18.1 11.7,25.6 25.3,25.6 9.6,0 15.5,-1.7 20.4,-3.8 l 2.4,9.6 c -4.7,2.1 -12.9,4.7 -24.7,4.7 -22.7,0 -36.2,-15.1 -36.2,-37.3 0,-22.2 13.1,-39.6 34.5,-39.6 24.2,0 30.4,21 30.4,34.5 0,2.7 -0.2,4.7 -0.5,6.2 z m 39.3,-9.6 c 0.2,-8.4 -3.5,-21.6 -18.6,-21.6 -13.7,0 -19.5,12.3 -20.5,21.6 z" /></g>





























<g
   id="g925"
   transform="rotate(-9.9845205,490.25793,417.42973)"><polygon
     id="polygon4"
     points="626.9,539.3 636.1,482.2 539.2,549.5 368.1,464 256.6,548.8 210,513.6 116.1,575.3 120.8,533.7 206.1,437.5 236.1,465.7 393.7,330.9 616,369.3 695.9,324.5 647.1,297.6 551,295.2 530,245.8 569.7,260.7 683.5,257.3 718.2,312 731.9,304.5 828.2,371.2 843.3,410.5 781.8,432.9 709.2,406.2 697.9,465.3 810.2,478.5 851.6,553.4 821.1,560.3 778.9,518.3 "
     class="st0"
     style="fill:#3b789a" /><polygon
     points="120.8,533.7 116.1,575.3 210,513.6 "
     class="st3"
     id="polygon24"
     style="fill:#529cb3" /><polygon
     points="120.8,533.7 210,513.6 206.1,437.5 "
     class="st4"
     id="polygon26"
     style="fill:#4d8da7" /><polygon
     points="210,513.6 206.1,437.5 236.1,465.7 "
     class="st5"
     id="polygon28"
     style="fill:#49828b" /><polygon
     points="210,513.6 236.1,465.7 256.6,548.8 "
     class="st6"
     id="polygon30"
     style="fill:#436e86" /><polygon
     points="256.6,548.8 236.1,465.7 393.7,330.9 "
     class="st7"
     id="polygon32"
     style="fill:#3d7494" /><polygon
     points="256.6,548.8 393.7,330.9 368.1,464 "
     class="st8"
     id="polygon34"
     style="fill:#41838d" /><polygon
     points="393.7,330.9 368.1,464 539.2,549.5 "
     class="st9"
     id="polygon36"
     style="fill:#427d82" /><polygon
     points="616,369.3 539.2,549.5 393.7,330.9 "
     class="st10"
     id="polygon38"
     style="fill:#447775" /><polygon
     points="616,369.3 636.1,482.2 539.2,549.5 "
     class="st11"
     id="polygon40"
     style="fill:#5299a2" /><polygon
     points="616,369.3 636.1,482.2 709.2,406.2 "
     class="st12"
     id="polygon42"
     style="fill:#4c8e88" /><polygon
     points="709.2,406.2 636.1,482.2 697.9,465.3 "
     class="st11"
     id="polygon44"
     style="fill:#5299a2" /><polygon
     points="697.9,465.3 636.1,482.2 626.9,539.3 "
     class="st13"
     id="polygon46"
     style="fill:#56a6a6" /><polygon
     points="697.9,465.3 626.9,539.3 778.9,518.3 "
     class="st14"
     id="polygon48"
     style="fill:#57ae9b" /><polygon
     points="697.9,465.3 810.2,478.5 778.9,518.3 "
     class="st15"
     id="polygon50"
     style="fill:#50a283" /><path
     d="m 778.9,518.3 c 1.6,-2 31.3,-39.8 31.3,-39.8 l 11,81.8 z"
     class="st16"
     inkscape:connector-curvature="0"
     id="path52"
     style="fill:#468d67" /><polygon
     points="810.2,478.5 821.1,560.3 851.6,553.4 "
     class="st17"
     id="polygon54"
     style="fill:#42875f" /><polygon
     points="695.9,324.5 718.2,312 709.2,406.2 "
     class="st18"
     id="polygon56"
     style="fill:#468e69" /><polygon
     points="718.2,312 731.9,304.5 709.2,406.2 "
     class="st19"
     id="polygon58"
     style="fill:#3f9e69" /><polygon
     points="731.9,304.5 781.8,432.9 709.2,406.2 "
     class="st20"
     id="polygon60"
     style="fill:#35aa57" /><polygon
     points="731.9,304.5 781.8,432.9 828.2,371.2 "
     class="st21"
     id="polygon62"
     style="fill:#3ca362" /><path
     d="M 828.2,371.2"
     class="st15"
     inkscape:connector-curvature="0"
     id="path64"
     style="fill:#50a283" /><polygon
     points="828.2,371.2 781.8,432.9 843.3,410.5 "
     class="st22"
     id="polygon66"
     style="fill:#2cb24b" /><polygon
     points="718.2,312 683.5,257.3 695.9,324.5 "
     class="st23"
     id="polygon68"
     style="fill:#438760" /><path
     d="M 551,295.2"
     class="st15"
     inkscape:connector-curvature="0"
     id="path70"
     style="fill:#50a283" /><polygon
     points="683.5,257.3 647.1,297.6 695.9,324.5 "
     class="st24"
     id="polygon72"
     style="fill:#43796e" /><polygon
     points="683.5,257.3 569.7,260.7 647.1,297.6 "
     class="st25"
     id="polygon74"
     style="fill:#42747f" /><polygon
     points="569.7,260.7 551,295.2 647.1,297.6 "
     class="st26"
     id="polygon76"
     style="fill:#48809f" /><polygon
     points="551,295.2 530,245.8 569.7,260.7 "
     class="st27"
     id="polygon78"
     style="fill:#4e95bb" /><polygon
     points="381.5,326.6 327.9,370.3 279.8,310.9 "
     class="st2"
     id="polygon80"
     style="fill:#e02127" /><polygon
     points="695.9,324.5 616,369.3 709.2,406.2 "
     class="st28"
     id="polygon82"
     style="fill:#438772" /></g>






































<g
   transform="rotate(-9.9845205,6473.721,940.1005)"
   id="g1035"><polygon
     style="fill:#3b789a"
     class="st0"
     points="683.5,257.3 718.2,312 731.9,304.5 828.2,371.2 843.3,410.5 781.8,432.9 709.2,406.2 697.9,465.3 810.2,478.5 851.6,553.4 821.1,560.3 778.9,518.3 626.9,539.3 636.1,482.2 539.2,549.5 368.1,464 256.6,548.8 210,513.6 116.1,575.3 120.8,533.7 206.1,437.5 236.1,465.7 393.7,330.9 616,369.3 695.9,324.5 647.1,297.6 551,295.2 530,245.8 569.7,260.7 "
     id="polygon973" /><polygon
     style="fill:#529cb3"
     id="polygon975"
     class="st3"
     points="210,513.6 120.8,533.7 116.1,575.3 " /><polygon
     style="fill:#4d8da7"
     id="polygon977"
     class="st4"
     points="206.1,437.5 120.8,533.7 210,513.6 " /><polygon
     style="fill:#49828b"
     id="polygon979"
     class="st5"
     points="236.1,465.7 210,513.6 206.1,437.5 " /><polygon
     style="fill:#436e86"
     id="polygon981"
     class="st6"
     points="256.6,548.8 210,513.6 236.1,465.7 " /><polygon
     style="fill:#3d7494"
     id="polygon983"
     class="st7"
     points="393.7,330.9 256.6,548.8 236.1,465.7 " /><polygon
     style="fill:#41838d"
     id="polygon985"
     class="st8"
     points="368.1,464 256.6,548.8 393.7,330.9 " /><polygon
     style="fill:#427d82"
     id="polygon987"
     class="st9"
     points="539.2,549.5 393.7,330.9 368.1,464 " /><polygon
     style="fill:#447775"
     id="polygon989"
     class="st10"
     points="393.7,330.9 616,369.3 539.2,549.5 " /><polygon
     style="fill:#5299a2"
     id="polygon991"
     class="st11"
     points="539.2,549.5 616,369.3 636.1,482.2 " /><polygon
     style="fill:#4c8e88"
     id="polygon993"
     class="st12"
     points="709.2,406.2 616,369.3 636.1,482.2 " /><polygon
     style="fill:#5299a2"
     id="polygon995"
     class="st11"
     points="697.9,465.3 709.2,406.2 636.1,482.2 " /><polygon
     style="fill:#56a6a6"
     id="polygon997"
     class="st13"
     points="626.9,539.3 697.9,465.3 636.1,482.2 " /><polygon
     style="fill:#57ae9b"
     id="polygon999"
     class="st14"
     points="778.9,518.3 697.9,465.3 626.9,539.3 " /><polygon
     style="fill:#50a283"
     id="polygon1001"
     class="st15"
     points="778.9,518.3 697.9,465.3 810.2,478.5 " /><path
     style="fill:#468d67"
     id="path1003"
     inkscape:connector-curvature="0"
     class="st16"
     d="m 778.9,518.3 c 1.6,-2 31.3,-39.8 31.3,-39.8 l 11,81.8 z" /><polygon
     style="fill:#42875f"
     id="polygon1005"
     class="st17"
     points="851.6,553.4 810.2,478.5 821.1,560.3 " /><polygon
     style="fill:#468e69"
     id="polygon1007"
     class="st18"
     points="709.2,406.2 695.9,324.5 718.2,312 " /><polygon
     style="fill:#3f9e69"
     id="polygon1009"
     class="st19"
     points="709.2,406.2 718.2,312 731.9,304.5 " /><polygon
     style="fill:#35aa57"
     id="polygon1011"
     class="st20"
     points="709.2,406.2 731.9,304.5 781.8,432.9 " /><polygon
     style="fill:#3ca362"
     id="polygon1013"
     class="st21"
     points="828.2,371.2 731.9,304.5 781.8,432.9 " /><path
     style="fill:#50a283"
     id="path1015"
     inkscape:connector-curvature="0"
     class="st15"
     d="M 828.2,371.2" /><polygon
     style="fill:#2cb24b"
     id="polygon1017"
     class="st22"
     points="843.3,410.5 828.2,371.2 781.8,432.9 " /><polygon
     style="fill:#438760"
     id="polygon1019"
     class="st23"
     points="695.9,324.5 718.2,312 683.5,257.3 " /><path
     style="fill:#50a283"
     id="path1021"
     inkscape:connector-curvature="0"
     class="st15"
     d="M 551,295.2" /><polygon
     style="fill:#43796e"
     id="polygon1023"
     class="st24"
     points="695.9,324.5 683.5,257.3 647.1,297.6 " /><polygon
     style="fill:#42747f"
     id="polygon1025"
     class="st25"
     points="647.1,297.6 683.5,257.3 569.7,260.7 " /><polygon
     style="fill:#48809f"
     id="polygon1027"
     class="st26"
     points="647.1,297.6 569.7,260.7 551,295.2 " /><polygon
     style="fill:#4e95bb"
     id="polygon1029"
     class="st27"
     points="569.7,260.7 551,295.2 530,245.8 " /><polygon
     style="fill:#e02127"
     id="polygon1031"
     class="st2"
     points="279.8,310.9 381.5,326.6 327.9,370.3 " /><polygon
     style="fill:#438772"
     id="polygon1033"
     class="st28"
     points="709.2,406.2 695.9,324.5 616,369.3 " /></g><circle
   style="opacity:1;vector-effect:none;fill:#2e2e2e;fill-opacity:1;fill-rule:evenodd;stroke:none;stroke-width:0.86002773;stroke-linecap:butt;stroke-linejoin:miter;stroke-miterlimit:4;stroke-dasharray:none;stroke-dashoffset:0;stroke-opacity:1"
   id="circle1170"
   cx="1535.7357"
   cy="1536"
   r="440.3342" /><g
   transform="translate(1038.6161,-21.9097)"
   id="g1188"><path
     d="m 264.2,1800.7416 v 7.6 h -76.1 v -7.6 z"
     class="st2"
     inkscape:connector-curvature="0"
     id="path1172"
     style="fill:#e02127;stroke:none" /><path
     d="m 275.3,1738.6416 c 0,-8.7 -0.2,-16.1 -0.6,-23 h 11.7 l 0.6,14.6 h 0.5 c 3.3,-9.9 11.6,-16.1 20.5,-16.1 1.4,0 2.4,0.2 3.7,0.3 v 12.6 c -1.4,-0.3 -2.7,-0.3 -4.6,-0.3 -9.4,0 -16.1,7 -18,17 -0.3,1.8 -0.5,4.1 -0.5,6.2 v 39.4 h -13.4 z"
     class="st2"
     inkscape:connector-curvature="0"
     id="path1174"
     style="fill:#e02127" /><path
     d="m 386.7,1769.0416 c 0,7.8 0.2,14.5 0.6,20.2 h -11.9 l -0.8,-12 h -0.3 c -3.3,5.9 -11.3,13.7 -24.3,13.7 -11.6,0 -25.4,-6.5 -25.4,-32.3 v -43.1 H 338 v 40.6 c 0,14 4.4,23.6 16.4,23.6 9,0 15.2,-6.2 17.7,-12.3 0.8,-1.8 1.2,-4.3 1.2,-6.8 v -45 h 13.4 z"
     class="st0"
     inkscape:connector-curvature="0"
     id="path1176"
     style="fill:#3b789a" /><path
     d="m 408.9,1735.5416 c 0,-7.8 -0.2,-13.8 -0.6,-19.9 h 11.9 l 0.8,12.2 h 0.3 c 3.7,-6.8 12.2,-13.7 24.3,-13.7 10.2,0 26,6.1 26,31.3 v 43.9 h -13.4 v -42.5 c 0,-11.9 -4.4,-21.8 -17,-21.8 -8.7,0 -15.5,6.2 -18,13.7 -0.6,1.7 -0.9,4 -0.9,6.2 v 44.4 h -13.4 z"
     class="st0"
     inkscape:connector-curvature="0"
     id="path1178"
     style="fill:#3b789a" /><path
     d="m 508.9,1698.0416 v 17.7 h 19.2 v 10.2 h -19.2 v 39.7 c 0,9.1 2.6,14.3 10,14.3 3.7,0 5.8,-0.3 7.8,-0.9 l 0.6,10.2 c -2.6,0.9 -6.7,1.8 -11.9,1.8 -6.2,0 -11.3,-2.1 -14.5,-5.6 -3.7,-4.1 -5.2,-10.7 -5.2,-19.3 v -40.2 h -11.4 v -10.2 h 11.4 v -13.7 z"
     class="st0"
     inkscape:connector-curvature="0"
     id="path1180"
     style="fill:#3b789a" /><path
     d="m 558.1,1694.9416 c 0,4.6 -3.2,8.2 -8.5,8.2 -4.9,0 -8.1,-3.7 -8.1,-8.2 0,-4.6 3.3,-8.4 8.4,-8.4 4.8,0 8.2,3.7 8.2,8.4 z m -15,94.4 v -73.6 h 13.4 v 73.6 z"
     class="st0"
     inkscape:connector-curvature="0"
     id="path1182"
     style="fill:#3b789a" /><path
     d="m 578.7,1735.5416 c 0,-7.8 -0.3,-13.8 -0.6,-19.9 h 11.7 l 0.6,12 h 0.5 c 4.1,-7 11,-13.5 23.3,-13.5 9.9,0 17.5,6.1 20.7,14.8 h 0.3 c 2.3,-4.3 5.3,-7.3 8.4,-9.6 4.4,-3.3 9.1,-5.2 16.1,-5.2 9.9,0 24.3,6.4 24.3,32 v 43.2 h -13 v -41.5 c 0,-14.3 -5.3,-22.7 -16,-22.7 -7.8,0 -13.5,5.6 -16,12 -0.6,2 -1.1,4.3 -1.1,6.7 v 45.5 h -13.1 v -44.1 c 0,-11.7 -5.2,-20.1 -15.4,-20.1 -8.2,0 -14.5,6.7 -16.6,13.4 -0.8,1.8 -1.1,4.3 -1.1,6.5 v 44.3 h -13.1 z"
     class="st0"
     inkscape:connector-curvature="0"
     id="path1184"
     style="fill:#3b789a" /><path
     d="m 713.1,1754.9416 c 0.3,18.1 11.7,25.6 25.3,25.6 9.6,0 15.5,-1.7 20.4,-3.8 l 2.4,9.6 c -4.7,2.1 -12.9,4.7 -24.7,4.7 -22.7,0 -36.2,-15.1 -36.2,-37.3 0,-22.2 13.1,-39.6 34.5,-39.6 24.2,0 30.4,21 30.4,34.5 0,2.7 -0.2,4.7 -0.5,6.2 z m 39.3,-9.6 c 0.2,-8.4 -3.5,-21.6 -18.6,-21.6 -13.7,0 -19.5,12.3 -20.5,21.6 z"
     class="st0"
     inkscape:connector-curvature="0"
     id="path1186"
     style="fill:#3b789a" /></g><g
   id="g1252"
   transform="rotate(-9.9845205,6985.589,-4919.6932)"><polygon
     id="polygon1190"
     points="210,513.6 116.1,575.3 120.8,533.7 206.1,437.5 236.1,465.7 393.7,330.9 616,369.3 695.9,324.5 647.1,297.6 551,295.2 530,245.8 569.7,260.7 683.5,257.3 718.2,312 731.9,304.5 828.2,371.2 843.3,410.5 781.8,432.9 709.2,406.2 697.9,465.3 810.2,478.5 851.6,553.4 821.1,560.3 778.9,518.3 626.9,539.3 636.1,482.2 539.2,549.5 368.1,464 256.6,548.8 "
     class="st0"
     style="fill:#3b789a" /><polygon
     points="116.1,575.3 210,513.6 120.8,533.7 "
     class="st3"
     id="polygon1192"
     style="fill:#529cb3" /><polygon
     points="210,513.6 206.1,437.5 120.8,533.7 "
     class="st4"
     id="polygon1194"
     style="fill:#4d8da7" /><polygon
     points="206.1,437.5 236.1,465.7 210,513.6 "
     class="st5"
     id="polygon1196"
     style="fill:#49828b" /><polygon
     points="236.1,465.7 256.6,548.8 210,513.6 "
     class="st6"
     id="polygon1198"
     style="fill:#436e86" /><polygon
     points="236.1,465.7 393.7,330.9 256.6,548.8 "
     class="st7"
     id="polygon1200"
     style="fill:#3d7494" /><polygon
     points="393.7,330.9 368.1,464 256.6,548.8 "
     class="st8"
     id="polygon1202"
     style="fill:#41838d" /><polygon
     points="368.1,464 539.2,549.5 393.7,330.9 "
     class="st9"
     id="polygon1204"
     style="fill:#427d82" /><polygon
     points="539.2,549.5 393.7,330.9 616,369.3 "
     class="st10"
     id="polygon1206"
     style="fill:#447775" /><polygon
     points="636.1,482.2 539.2,549.5 616,369.3 "
     class="st11"
     id="polygon1208"
     style="fill:#5299a2" /><polygon
     points="636.1,482.2 709.2,406.2 616,369.3 "
     class="st12"
     id="polygon1210"
     style="fill:#4c8e88" /><polygon
     points="636.1,482.2 697.9,465.3 709.2,406.2 "
     class="st11"
     id="polygon1212"
     style="fill:#5299a2" /><polygon
     points="636.1,482.2 626.9,539.3 697.9,465.3 "
     class="st13"
     id="polygon1214"
     style="fill:#56a6a6" /><polygon
     points="626.9,539.3 778.9,518.3 697.9,465.3 "
     class="st14"
     id="polygon1216"
     style="fill:#57ae9b" /><polygon
     points="810.2,478.5 778.9,518.3 697.9,465.3 "
     class="st15"
     id="polygon1218"
     style="fill:#50a283" /><path
     d="m 778.9,518.3 c 1.6,-2 31.3,-39.8 31.3,-39.8 l 11,81.8 z"
     class="st16"
     inkscape:connector-curvature="0"
     id="path1220"
     style="fill:#468d67" /><polygon
     points="821.1,560.3 851.6,553.4 810.2,478.5 "
     class="st17"
     id="polygon1222"
     style="fill:#42875f" /><polygon
     points="718.2,312 709.2,406.2 695.9,324.5 "
     class="st18"
     id="polygon1224"
     style="fill:#468e69" /><polygon
     points="731.9,304.5 709.2,406.2 718.2,312 "
     class="st19"
     id="polygon1226"
     style="fill:#3f9e69" /><polygon
     points="781.8,432.9 709.2,406.2 731.9,304.5 "
     class="st20"
     id="polygon1228"
     style="fill:#35aa57" /><polygon
     points="781.8,432.9 828.2,371.2 731.9,304.5 "
     class="st21"
     id="polygon1230"
     style="fill:#3ca362" /><path
     d="M 828.2,371.2"
     class="st15"
     inkscape:connector-curvature="0"
     id="path1232"
     style="fill:#50a283" /><polygon
     points="781.8,432.9 843.3,410.5 828.2,371.2 "
     class="st22"
     id="polygon1234"
     style="fill:#2cb24b" /><polygon
     points="683.5,257.3 695.9,324.5 718.2,312 "
     class="st23"
     id="polygon1236"
     style="fill:#438760" /><path
     d="M 551,295.2"
     class="st15"
     inkscape:connector-curvature="0"
     id="path1238"
     style="fill:#50a283" /><polygon
     points="647.1,297.6 695.9,324.5 683.5,257.3 "
     class="st24"
     id="polygon1240"
     style="fill:#43796e" /><polygon
     points="569.7,260.7 647.1,297.6 683.5,257.3 "
     class="st25"
     id="polygon1242"
     style="fill:#42747f" /><polygon
     points="551,295.2 647.1,297.6 569.7,260.7 "
     class="st26"
     id="polygon1244"
     style="fill:#48809f" /><polygon
     points="530,245.8 569.7,260.7 551,295.2 "
     class="st27"
     id="polygon1246"
     style="fill:#4e95bb" /><polygon
     points="327.9,370.3 279.8,310.9 381.5,326.6 "
     class="st2"
     id="polygon1248"
     style="fill:#e02127" /><polygon
     points="616,369.3 709.2,406.2 695.9,324.5 "
     class="st28"
     id="polygon1250"
     style="fill:#438772" /></g><g
   id="g1270"
   transform="translate(1020.8946)"><path
     style="fill:#e02127;stroke:none"
     id="path1254"
     inkscape:connector-curvature="0"
     class="st2"
     d="m 279.08031,733.49032 v 7.6 h -76.1 v -7.6 z" /><path
     style="fill:#e02127"
     id="path1256"
     inkscape:connector-curvature="0"
     class="st2"
     d="m 290.18031,671.39032 c 0,-8.7 -0.2,-16.1 -0.6,-23 h 11.7 l 0.6,14.6 h 0.5 c 3.3,-9.9 11.6,-16.1 20.5,-16.1 1.4,0 2.4,0.2 3.7,0.3 v 12.6 c -1.4,-0.3 -2.7,-0.3 -4.6,-0.3 -9.4,0 -16.1,7 -18,17 -0.3,1.8 -0.5,4.1 -0.5,6.2 v 39.4 h -13.4 z" /><path
     style="fill:#3b789a"
     id="path1258"
     inkscape:connector-curvature="0"
     class="st0"
     d="m 401.58031,701.79032 c 0,7.8 0.2,14.5 0.6,20.2 h -11.9 l -0.8,-12 h -0.3 c -3.3,5.9 -11.3,13.7 -24.3,13.7 -11.6,0 -25.4,-6.5 -25.4,-32.3 v -43.1 h 13.4 v 40.6 c 0,14 4.4,23.6 16.4,23.6 9,0 15.2,-6.2 17.7,-12.3 0.8,-1.8 1.2,-4.3 1.2,-6.8 v -45 h 13.4 z" /><path
     style="fill:#3b789a"
     id="path1260"
     inkscape:connector-curvature="0"
     class="st0"
     d="m 423.78031,668.29032 c 0,-7.8 -0.2,-13.8 -0.6,-19.9 h 11.9 l 0.8,12.2 h 0.3 c 3.7,-6.8 12.2,-13.7 24.3,-13.7 10.2,0 26,6.1 26,31.3 v 43.9 h -13.4 v -42.5 c 0,-11.9 -4.4,-21.8 -17,-21.8 -8.7,0 -15.5,6.2 -18,13.7 -0.6,1.7 -0.9,4 -0.9,6.2 v 44.4 h -13.4 z" /><path
     style="fill:#3b789a"
     id="path1262"
     inkscape:connector-curvature="0"
     class="st0"
     d="m 523.78031,630.79032 v 17.7 h 19.2 v 10.2 h -19.2 v 39.7 c 0,9.1 2.6,14.3 10,14.3 3.7,0 5.8,-0.3 7.8,-0.9 l 0.6,10.2 c -2.6,0.9 -6.7,1.8 -11.9,1.8 -6.2,0 -11.3,-2.1 -14.5,-5.6 -3.7,-4.1 -5.2,-10.7 -5.2,-19.3 v -40.2 h -11.4 v -10.2 h 11.4 v -13.7 z" /><path
     style="fill:#3b789a"
     id="path1264"
     inkscape:connector-curvature="0"
     class="st0"
     d="m 572.98031,627.69032 c 0,4.6 -3.2,8.2 -8.5,8.2 -4.9,0 -8.1,-3.7 -8.1,-8.2 0,-4.6 3.3,-8.4 8.4,-8.4 4.8,0 8.2,3.7 8.2,8.4 z m -15,94.4 v -73.6 h 13.4 v 73.6 z" /><path
     style="fill:#3b789a"
     id="path1266"
     inkscape:connector-curvature="0"
     class="st0"
     d="m 593.58031,668.29032 c 0,-7.8 -0.3,-13.8 -0.6,-19.9 h 11.7 l 0.6,12 h 0.5 c 4.1,-7 11,-13.5 23.3,-13.5 9.9,0 17.5,6.1 20.7,14.8 h 0.3 c 2.3,-4.3 5.3,-7.3 8.4,-9.6 4.4,-3.3 9.1,-5.2 16.1,-5.2 9.9,0 24.3,6.4 24.3,32 v 43.2 h -13 v -41.5 c 0,-14.3 -5.3,-22.7 -16,-22.7 -7.8,0 -13.5,5.6 -16,12 -0.6,2 -1.1,4.3 -1.1,6.7 v 45.5 h -13.1 v -44.1 c 0,-11.7 -5.2,-20.1 -15.4,-20.1 -8.2,0 -14.5,6.7 -16.6,13.4 -0.8,1.8 -1.1,4.3 -1.1,6.5 v 44.3 h -13.1 z" /><path
     style="fill:#3b789a"
     id="path1268"
     inkscape:connector-curvature="0"
     class="st0"
     d="m 727.98031,687.69032 c 0.3,18.1 11.7,25.6 25.3,25.6 9.6,0 15.5,-1.7 20.4,-3.8 l 2.4,9.6 c -4.7,2.1 -12.9,4.7 -24.7,4.7 -22.7,0 -36.2,-15.1 -36.2,-37.3 0,-22.2 13.1,-39.6 34.5,-39.6 24.2,0 30.4,21 30.4,34.5 0,2.7 -0.2,4.7 -0.5,6.2 z m 39.3,-9.6 c 0.2,-8.4 -3.5,-21.6 -18.6,-21.6 -13.7,0 -19.5,12.3 -20.5,21.6 z" /></g><g
   transform="rotate(-9.9845205,1000.7053,-5426.1023)"
   id="g1334"><polygon
     style="fill:#3b789a"
     class="st0"
     points="530,245.8 569.7,260.7 683.5,257.3 718.2,312 731.9,304.5 828.2,371.2 843.3,410.5 781.8,432.9 709.2,406.2 697.9,465.3 810.2,478.5 851.6,553.4 821.1,560.3 778.9,518.3 626.9,539.3 636.1,482.2 539.2,549.5 368.1,464 256.6,548.8 210,513.6 116.1,575.3 120.8,533.7 206.1,437.5 236.1,465.7 393.7,330.9 616,369.3 695.9,324.5 647.1,297.6 551,295.2 "
     id="polygon1272" /><polygon
     style="fill:#529cb3"
     id="polygon1274"
     class="st3"
     points="120.8,533.7 116.1,575.3 210,513.6 " /><polygon
     style="fill:#4d8da7"
     id="polygon1276"
     class="st4"
     points="120.8,533.7 210,513.6 206.1,437.5 " /><polygon
     style="fill:#49828b"
     id="polygon1278"
     class="st5"
     points="210,513.6 206.1,437.5 236.1,465.7 " /><polygon
     style="fill:#436e86"
     id="polygon1280"
     class="st6"
     points="210,513.6 236.1,465.7 256.6,548.8 " /><polygon
     style="fill:#3d7494"
     id="polygon1282"
     class="st7"
     points="256.6,548.8 236.1,465.7 393.7,330.9 " /><polygon
     style="fill:#41838d"
     id="polygon1284"
     class="st8"
     points="256.6,548.8 393.7,330.9 368.1,464 " /><polygon
     style="fill:#427d82"
     id="polygon1286"
     class="st9"
     points="393.7,330.9 368.1,464 539.2,549.5 " /><polygon
     style="fill:#447775"
     id="polygon1288"
     class="st10"
     points="616,369.3 539.2,549.5 393.7,330.9 " /><polygon
     style="fill:#5299a2"
     id="polygon1290"
     class="st11"
     points="616,369.3 636.1,482.2 539.2,549.5 " /><polygon
     style="fill:#4c8e88"
     id="polygon1292"
     class="st12"
     points="616,369.3 636.1,482.2 709.2,406.2 " /><polygon
     style="fill:#5299a2"
     id="polygon1294"
     class="st11"
     points="709.2,406.2 636.1,482.2 697.9,465.3 " /><polygon
     style="fill:#56a6a6"
     id="polygon1296"
     class="st13"
     points="697.9,465.3 636.1,482.2 626.9,539.3 " /><polygon
     style="fill:#57ae9b"
     id="polygon1298"
     class="st14"
     points="697.9,465.3 626.9,539.3 778.9,518.3 " /><polygon
     style="fill:#50a283"
     id="polygon1300"
     class="st15"
     points="697.9,465.3 810.2,478.5 778.9,518.3 " /><path
     style="fill:#468d67"
     id="path1302"
     inkscape:connector-curvature="0"
     class="st16"
     d="m 778.9,518.3 c 1.6,-2 31.3,-39.8 31.3,-39.8 l 11,81.8 z" /><polygon
     style="fill:#42875f"
     id="polygon1304"
     class="st17"
     points="810.2,478.5 821.1,560.3 851.6,553.4 " /><polygon
     style="fill:#468e69"
     id="polygon1306"
     class="st18"
     points="695.9,324.5 718.2,312 709.2,406.2 " /><polygon
     style="fill:#3f9e69"
     id="polygon1308"
     class="st19"
     points="718.2,312 731.9,304.5 709.2,406.2 " /><polygon
     style="fill:#35aa57"
     id="polygon1310"
     class="st20"
     points="731.9,304.5 781.8,432.9 709.2,406.2 " /><polygon
     style="fill:#3ca362"
     id="polygon1312"
     class="st21"
     points="731.9,304.5 781.8,432.9 828.2,371.2 " /><path
     style="fill:#50a283"
     id="path1314"
     inkscape:connector-curvature="0"
     class="st15"
     d="M 828.2,371.2" /><polygon
     style="fill:#2cb24b"
     id="polygon1316"
     class="st22"
     points="828.2,371.2 781.8,432.9 843.3,410.5 " /><polygon
     style="fill:#438760"
     id="polygon1318"
     class="st23"
     points="718.2,312 683.5,257.3 695.9,324.5 " /><path
     style="fill:#50a283"
     id="path1320"
     inkscape:connector-curvature="0"
     class="st15"
     d="M 551,295.2" /><polygon
     style="fill:#43796e"
     id="polygon1322"
     class="st24"
     points="683.5,257.3 647.1,297.6 695.9,324.5 " /><polygon
     style="fill:#42747f"
     id="polygon1324"
     class="st25"
     points="683.5,257.3 569.7,260.7 647.1,297.6 " /><polygon
     style="fill:#48809f"
     id="polygon1326"
     class="st26"
     points="569.7,260.7 551,295.2 647.1,297.6 " /><polygon
     style="fill:#4e95bb"
     id="polygon1328"
     class="st27"
     points="551,295.2 530,245.8 569.7,260.7 " /><polygon
     style="fill:#e02127"
     id="polygon1330"
     class="st2"
     points="381.5,326.6 327.9,370.3 279.8,310.9 " /><polygon
     style="fill:#438772"
     id="polygon1332"
     class="st28"
     points="695.9,324.5 616,369.3 709.2,406.2 " /></g></svg>